<svg xmlns="http://www.w3.org/2000/svg" xmlns:xlink="http://www.w3.org/1999/xlink" viewBox="0 0 1921.39614 909.82213"><defs><radialGradient id="9c8315bc-9467-4fb8-ae07-858954d86f4e" cx="788.56267" cy="279.79254" r="5.37312" gradientUnits="userSpaceOnUse"><stop offset="0.00538" stop-color="#fff"/><stop offset="0.07737" stop-color="#fff" stop-opacity="0.82749"/><stop offset="0.16916" stop-color="#fff" stop-opacity="0.63543"/><stop offset="0.26598" stop-color="#fff" stop-opacity="0.465"/><stop offset="0.36604" stop-color="#fff" stop-opacity="0.3214"/><stop offset="0.47026" stop-color="#fff" stop-opacity="0.2044"/><stop offset="0.57987" stop-color="#fff" stop-opacity="0.11395"/><stop offset="0.69737" stop-color="#fff" stop-opacity="0.04985"/><stop offset="0.82831" stop-color="#fff" stop-opacity="0.01195"/><stop offset="1" stop-color="#fff" stop-opacity="0"/></radialGradient><radialGradient id="c1272dfa-da57-4aeb-9dee-606218938a57" cx="788.56267" cy="279.79261" r="3.33482" xlink:href="#9c8315bc-9467-4fb8-ae07-858954d86f4e"/><radialGradient id="8d3b4687-0ed0-4c6d-b24a-b06f21f92593" cx="728.34669" cy="188.69672" r="5.37311" xlink:href="#9c8315bc-9467-4fb8-ae07-858954d86f4e"/><radialGradient id="5d4f6a65-45e9-4e4e-9b04-94958cd64a9d" cx="728.34676" cy="188.69665" r="3.33471" xlink:href="#9c8315bc-9467-4fb8-ae07-858954d86f4e"/><radialGradient id="a0354e3f-cdde-4ecc-8d28-29d2f46044bc" cx="753.42131" cy="561.72675" r="10.65353" xlink:href="#9c8315bc-9467-4fb8-ae07-858954d86f4e"/><radialGradient id="e746e01a-6875-4121-ad4b-a6aa0b054be2" cx="753.42124" cy="561.72668" r="6.61202" xlink:href="#9c8315bc-9467-4fb8-ae07-858954d86f4e"/><radialGradient id="31f9266d-5eb3-47ac-943f-6493266fb04d" cx="1191.45357" cy="287.45083" r="10.65356" xlink:href="#9c8315bc-9467-4fb8-ae07-858954d86f4e"/><radialGradient id="523dcfbb-8764-43d2-9944-581b59816929" cx="1191.45364" cy="287.45076" r="6.61205" xlink:href="#9c8315bc-9467-4fb8-ae07-858954d86f4e"/><radialGradient id="0d873748-8e98-42f0-9e39-2c002374af1d" cx="1301.88037" cy="395.8395" r="10.65359" gradientTransform="translate(661.21274 -804.6297) rotate(45)" xlink:href="#9c8315bc-9467-4fb8-ae07-858954d86f4e"/><radialGradient id="2f202075-0854-423a-968a-fbbb1b745158" cx="1301.88044" cy="395.83944" r="6.61209" xlink:href="#9c8315bc-9467-4fb8-ae07-858954d86f4e"/><radialGradient id="6f91fc2c-1b6e-44bf-b3ad-310b5351316d" cx="1353.66602" cy="562.40604" r="10.65359" xlink:href="#9c8315bc-9467-4fb8-ae07-858954d86f4e"/><radialGradient id="f71f26c9-716c-4825-8832-c3b9e9e4d2c2" cx="1353.66616" cy="562.40597" r="6.61205" xlink:href="#9c8315bc-9467-4fb8-ae07-858954d86f4e"/><radialGradient id="920a346a-3348-464a-8eca-501e0f4b858b" cx="814.05397" cy="375.98809" r="10.65359" gradientTransform="translate(504.2946 -465.49875) rotate(45)" xlink:href="#9c8315bc-9467-4fb8-ae07-858954d86f4e"/><radialGradient id="f9ea99d0-0e02-46f2-b45f-8419b50190d8" cx="671.09529" cy="454.82027" r="6.08336" xlink:href="#9c8315bc-9467-4fb8-ae07-858954d86f4e"/><radialGradient id="bc5c68ee-2fe7-4950-b08e-a5f1a3e1c77d" cx="671.09529" cy="454.82034" r="3.77556" xlink:href="#9c8315bc-9467-4fb8-ae07-858954d86f4e"/><radialGradient id="5223a43c-8963-4690-ae3a-ea58b623d117" cx="971.58821" cy="348.22261" r="4.9408" xlink:href="#9c8315bc-9467-4fb8-ae07-858954d86f4e"/><radialGradient id="0490b580-9c5d-47b4-bea5-989f072d100a" cx="971.58828" cy="348.22261" r="3.06647" xlink:href="#9c8315bc-9467-4fb8-ae07-858954d86f4e"/><radialGradient id="4730a7c7-784f-4d19-aed4-b8ddeed61ecb" cx="905.65944" cy="174.8007" r="4.94074" xlink:href="#9c8315bc-9467-4fb8-ae07-858954d86f4e"/><radialGradient id="8f961d06-087c-4930-87fa-8d192ce76878" cx="905.65951" cy="174.8007" r="3.06647" xlink:href="#9c8315bc-9467-4fb8-ae07-858954d86f4e"/><radialGradient id="e24cfb1e-ae7e-42a3-8217-01b00dab7b1c" cx="1179.87358" cy="518.67999" r="3.45851" xlink:href="#9c8315bc-9467-4fb8-ae07-858954d86f4e"/><radialGradient id="2dc2f996-6024-45a0-91c0-d47b4b4c0d19" cx="1179.87358" cy="518.67999" r="2.14656" xlink:href="#9c8315bc-9467-4fb8-ae07-858954d86f4e"/><radialGradient id="551e2fd6-988a-4611-a57a-cf2fa2c276c1" cx="1336.49679" cy="688.64336" r="3.45854" xlink:href="#9c8315bc-9467-4fb8-ae07-858954d86f4e"/><radialGradient id="ce7eda6f-377f-4070-b4e2-b41fec65abed" cx="1336.49679" cy="688.64336" r="2.14653" xlink:href="#9c8315bc-9467-4fb8-ae07-858954d86f4e"/><radialGradient id="9dee8679-656b-4327-a368-805e9f9928b7" cx="1316.56339" cy="145.15594" r="3.45851" xlink:href="#9c8315bc-9467-4fb8-ae07-858954d86f4e"/><radialGradient id="5dd6a694-120b-4e0b-be9b-99542028368c" cx="1316.56347" cy="145.15601" r="2.1465" xlink:href="#9c8315bc-9467-4fb8-ae07-858954d86f4e"/><radialGradient id="e1512112-1e52-4bb2-b840-86df68db0d4c" cx="1369.60009" cy="390.46639" r="3.45854" xlink:href="#9c8315bc-9467-4fb8-ae07-858954d86f4e"/><radialGradient id="e4afd40b-dbf3-4db8-b091-14f7f9791f78" cx="1369.60009" cy="390.46646" r="2.14649" xlink:href="#9c8315bc-9467-4fb8-ae07-858954d86f4e"/><radialGradient id="197682f3-f67e-484d-8a82-694911bbb236" cx="1297.81348" cy="360.82163" r="4.94074" xlink:href="#9c8315bc-9467-4fb8-ae07-858954d86f4e"/><radialGradient id="2733b28c-bc23-425c-a48d-31b86ec3755b" cx="1297.81354" cy="360.82163" r="3.06647" xlink:href="#9c8315bc-9467-4fb8-ae07-858954d86f4e"/><radialGradient id="77a60578-7f29-4ae1-98a8-6984fe08979a" cx="698.98925" cy="408.99439" r="4.94074" xlink:href="#9c8315bc-9467-4fb8-ae07-858954d86f4e"/><radialGradient id="a71b5523-be30-4625-b541-45b74f369bd5" cx="698.98918" cy="408.99439" r="3.06647" xlink:href="#9c8315bc-9467-4fb8-ae07-858954d86f4e"/><radialGradient id="b4329c01-c8a0-4d2d-9f42-5f66ef7c712d" cx="1150.14556" cy="346.92568" r="2.34685" xlink:href="#9c8315bc-9467-4fb8-ae07-858954d86f4e"/><radialGradient id="590aa9bc-c232-4d9f-a5f7-fc06bbc5155f" cx="1150.14554" cy="346.92561" r="1.45659" xlink:href="#9c8315bc-9467-4fb8-ae07-858954d86f4e"/><radialGradient id="15f023ba-0f9a-47c4-ac5f-cf4f02b5b691" cx="841.92321" cy="445.5819" r="2.34681" xlink:href="#9c8315bc-9467-4fb8-ae07-858954d86f4e"/><radialGradient id="b621f5a9-aa52-4f49-9308-29f9a4aa97c6" cx="841.92327" cy="445.58197" r="1.45659" xlink:href="#9c8315bc-9467-4fb8-ae07-858954d86f4e"/><radialGradient id="ec70d8f5-8dc2-4c17-afd2-78d5e2c7b364" cx="758.17678" cy="434.21817" r="2.34691" xlink:href="#9c8315bc-9467-4fb8-ae07-858954d86f4e"/><radialGradient id="43d4aa56-86ff-4693-86cf-fdf858cfcb13" cx="758.17678" cy="434.2181" r="1.45659" xlink:href="#9c8315bc-9467-4fb8-ae07-858954d86f4e"/><radialGradient id="b1317187-46e8-4516-bf9a-63a0f5b00bb5" cx="1236.19864" cy="486.83764" r="2.34688" xlink:href="#9c8315bc-9467-4fb8-ae07-858954d86f4e"/><radialGradient id="29245953-e1a9-45bf-929c-eb1f0e3fcfc4" cx="1236.19864" cy="486.83751" r="1.45659" xlink:href="#9c8315bc-9467-4fb8-ae07-858954d86f4e"/><radialGradient id="3f26e8f3-df20-45a6-82b4-31ac3038fb90" cx="918.03715" cy="563.14717" r="2.34688" xlink:href="#9c8315bc-9467-4fb8-ae07-858954d86f4e"/><radialGradient id="435e63f5-0a90-4f24-9598-cb57d694a367" cx="918.03715" cy="563.14717" r="1.45653" xlink:href="#9c8315bc-9467-4fb8-ae07-858954d86f4e"/><radialGradient id="64c9f5a0-fd3e-4b70-80b8-84f4a5307c10" cx="1120.6098" cy="293.37981" r="2.34685" xlink:href="#9c8315bc-9467-4fb8-ae07-858954d86f4e"/><radialGradient id="4c30a434-8a82-4d8b-b75c-907a8ad39623" cx="1120.60974" cy="293.37974" r="1.45656" xlink:href="#9c8315bc-9467-4fb8-ae07-858954d86f4e"/><radialGradient id="b1cac95a-f1ba-4336-9c54-3c840601abd2" cx="1037.5787" cy="483.84739" r="2.34685" xlink:href="#9c8315bc-9467-4fb8-ae07-858954d86f4e"/><radialGradient id="e4c0a5ed-ce3b-43cf-b682-da354fb47905" cx="1037.5787" cy="483.84745" r="1.4566" xlink:href="#9c8315bc-9467-4fb8-ae07-858954d86f4e"/><radialGradient id="e16dc871-5ea7-4ee7-8094-03e78f556be9" cx="813.01958" cy="575.72052" r="2.34685" xlink:href="#9c8315bc-9467-4fb8-ae07-858954d86f4e"/><radialGradient id="20ca9c47-7b51-4878-bdd3-c04284c2f249" cx="813.01965" cy="575.72052" r="1.45659" xlink:href="#9c8315bc-9467-4fb8-ae07-858954d86f4e"/><radialGradient id="81427beb-3ebe-4780-8414-aff03ed08669" cx="749.53039" cy="679.2815" r="2.34695" xlink:href="#9c8315bc-9467-4fb8-ae07-858954d86f4e"/><radialGradient id="a8edea9d-a570-4969-a99b-d9397f9cc8bb" cx="749.53039" cy="679.2815" r="1.45653" xlink:href="#9c8315bc-9467-4fb8-ae07-858954d86f4e"/><radialGradient id="65a260fa-1191-4049-b4d7-903fffc9bbd6" cx="706.57114" cy="158.99018" r="2.34685" xlink:href="#9c8315bc-9467-4fb8-ae07-858954d86f4e"/><radialGradient id="91fa1b39-9c5f-46e8-bc86-ff0914dd09d7" cx="706.57121" cy="158.99004" r="1.45659" xlink:href="#9c8315bc-9467-4fb8-ae07-858954d86f4e"/><radialGradient id="ba336c91-2ebb-49c4-878f-8a7570e542b2" cx="818.23316" cy="248.91263" r="2.34685" xlink:href="#9c8315bc-9467-4fb8-ae07-858954d86f4e"/><radialGradient id="7fb5dc1f-39d4-41e3-9531-7b164fac4bfb" cx="818.2331" cy="248.91257" r="1.45656" xlink:href="#9c8315bc-9467-4fb8-ae07-858954d86f4e"/><radialGradient id="d5b0dd98-35ff-4107-9b60-ea4bb38206c9" cx="1343.41394" cy="175.32045" r="2.34688" xlink:href="#9c8315bc-9467-4fb8-ae07-858954d86f4e"/><radialGradient id="a478c7bd-993f-4864-9392-88f88ceeec5b" cx="1343.41388" cy="175.32039" r="1.45653" xlink:href="#9c8315bc-9467-4fb8-ae07-858954d86f4e"/><radialGradient id="983a383b-15ce-4bfb-bb46-21e650e9b6b2" cx="1306.85203" cy="632.83798" r="2.34685" xlink:href="#9c8315bc-9467-4fb8-ae07-858954d86f4e"/><radialGradient id="09a90c97-7c3c-4552-9164-737510c7e5a5" cx="1306.85196" cy="632.83805" r="1.45656" xlink:href="#9c8315bc-9467-4fb8-ae07-858954d86f4e"/></defs><title>Asset 5</title><g style="isolation:isolate"><g id="af3e0c7e-3678-4aaf-926c-bd8253d5a6ff" data-name="Layer 2"><g id="31a235f0-36ef-414c-a2b0-a1eb4a402b4d" data-name="OBJECTS"><g opacity="0.5"><g id="2bba8034-e064-41a4-b07b-0815db103563" data-name="&lt;Group&gt;"><path id="8c347daf-99be-4e31-b71e-60820603457b" data-name="&lt;Path&gt;" d="M1921.21332,506.15445s-163.2896,91.514-423.47666,91.514-330.16828-238.65428-658.542-238.65428c-328.37389,0-396.56087,380.41125-837.98124,380.41125" fill="none" stroke="#f3f3f3" stroke-miterlimit="10" stroke-width="0.54284"/><path d="M1921.21332,502.128s-163.2896,101.219-423.47666,101.219-330.16828-253.086-658.542-253.086c-328.37389,0-396.56087,378.13543-837.98124,378.13543" fill="none" stroke="#f3f3f3" stroke-miterlimit="10" stroke-width="0.53622" opacity="0.97561"/><path d="M1921.21332,498.10158s-163.2896,110.92407-423.47666,110.92407S1167.56838,341.5079,839.19465,341.5079c-328.37389,0-396.56087,375.85962-837.98124,375.85962" fill="none" stroke="#f3f3f3" stroke-miterlimit="10" stroke-width="0.5296" opacity="0.95122"/><path d="M1921.21332,494.07514s-163.2896,120.62911-423.47666,120.62911-330.16828-281.94948-658.542-281.94948c-328.37389,0-396.56087,373.58381-837.98124,373.58381" fill="none" stroke="#f3f3f3" stroke-miterlimit="10" stroke-width="0.52298" opacity="0.92683"/><path d="M1921.21332,490.0487s-163.2896,130.33415-423.47666,130.33415-330.16828-296.38121-658.542-296.38121c-328.37389,0-396.56087,371.308-837.98124,371.308" fill="none" stroke="#f3f3f3" stroke-miterlimit="10" stroke-width="0.51636" opacity="0.90244"/><path d="M1921.21332,486.02226s-163.2896,140.03919-423.47666,140.03919-330.16828-310.813-658.542-310.813c-328.37389,0-396.56087,369.03218-837.98124,369.03218" fill="none" stroke="#f3f3f3" stroke-miterlimit="10" stroke-width="0.50974" opacity="0.87805"/><path d="M1921.21332,481.99582s-163.2896,149.74423-423.47666,149.74423-330.16828-325.24468-658.542-325.24468c-328.37389,0-396.56087,366.75636-837.98124,366.75636" fill="none" stroke="#f3f3f3" stroke-miterlimit="10" stroke-width="0.50312" opacity="0.85366"/><path d="M1921.21332,477.96938s-163.2896,159.44927-423.47666,159.44927-330.16828-339.67641-658.542-339.67641c-328.37389,0-396.56087,364.48055-837.98124,364.48055" fill="none" stroke="#f3f3f3" stroke-miterlimit="10" stroke-width="0.4965" opacity="0.82927"/><path d="M1921.21332,473.94294s-163.2896,169.15431-423.47666,169.15431S1167.56838,288.9891,839.19465,288.9891c-328.37389,0-396.56087,362.20474-837.98124,362.20474" fill="none" stroke="#f3f3f3" stroke-miterlimit="10" stroke-width="0.48988" opacity="0.80488"/><path d="M1921.21332,469.91651s-163.2896,178.85934-423.47666,178.85934S1167.56838,280.236,839.19465,280.236c-328.37389,0-396.56087,359.92892-837.98124,359.92892" fill="none" stroke="#f3f3f3" stroke-miterlimit="10" stroke-width="0.48326" opacity="0.78049"/><path d="M1921.21332,465.89007s-163.2896,188.56438-423.47666,188.56438-330.16828-382.97161-658.542-382.97161c-328.37389,0-396.56087,357.6531-837.98124,357.6531" fill="none" stroke="#f3f3f3" stroke-miterlimit="10" stroke-width="0.47664" opacity="0.7561"/><path d="M1921.21332,461.86363S1757.92372,660.133,1497.73666,660.133s-330.16828-397.40333-658.542-397.40333c-328.37389,0-396.56087,355.37729-837.98124,355.37729" fill="none" stroke="#f3f3f3" stroke-miterlimit="10" stroke-width="0.47002" opacity="0.73171"/><path d="M1921.21332,457.83719s-163.2896,207.97445-423.47666,207.97445-330.16828-411.83507-658.542-411.83507c-328.37389,0-396.56087,353.10148-837.98124,353.10148" fill="none" stroke="#f3f3f3" stroke-miterlimit="10" stroke-width="0.4634" opacity="0.70732"/><path d="M1921.21332,453.81075s-163.2896,217.67949-423.47666,217.67949-330.16828-426.2668-658.542-426.2668c-328.37389,0-396.56087,350.82566-837.98124,350.82566" fill="none" stroke="#f3f3f3" stroke-miterlimit="10" stroke-width="0.45678" opacity="0.68293"/><path d="M1921.21332,449.78431s-163.2896,227.38453-423.47666,227.38453-330.16828-440.69853-658.542-440.69853c-328.37389,0-396.56087,348.54984-837.98124,348.54984" fill="none" stroke="#f3f3f3" stroke-miterlimit="10" stroke-width="0.45016" opacity="0.65854"/><path d="M1921.21332,445.75787s-163.2896,237.08957-423.47666,237.08957-330.16828-455.13027-658.542-455.13027c-328.37389,0-396.56087,346.274-837.98124,346.274" fill="none" stroke="#f3f3f3" stroke-miterlimit="10" stroke-width="0.44354" opacity="0.63415"/><path d="M1921.21332,441.73143S1757.92372,688.526,1497.73666,688.526s-330.16828-469.562-658.542-469.562c-328.37389,0-396.56087,343.99822-837.98124,343.99822" fill="none" stroke="#f3f3f3" stroke-miterlimit="10" stroke-width="0.43692" opacity="0.60976"/><path d="M1921.21332,437.705s-163.2896,256.49964-423.47666,256.49964-330.16828-483.99373-658.542-483.99373c-328.37389,0-396.56087,341.7224-837.98124,341.7224" fill="none" stroke="#f3f3f3" stroke-miterlimit="10" stroke-width="0.4303" opacity="0.58537"/><path d="M1921.21332,433.67856s-163.2896,266.20468-423.47666,266.20468-330.16828-498.42547-658.542-498.42547c-328.37389,0-396.56087,339.44659-837.98124,339.44659" fill="none" stroke="#f3f3f3" stroke-miterlimit="10" stroke-width="0.42368" opacity="0.56098"/><path d="M1921.21332,429.65212s-163.2896,275.90972-423.47666,275.90972-330.16828-512.8572-658.542-512.8572c-328.37389,0-396.56087,337.17078-837.98124,337.17078" fill="none" stroke="#f3f3f3" stroke-miterlimit="10" stroke-width="0.41706" opacity="0.53659"/><path d="M1921.21332,425.62568s-163.2896,285.61476-423.47666,285.61476-330.16828-527.28893-658.542-527.28893c-328.37389,0-396.56087,334.895-837.98124,334.895" fill="none" stroke="#f3f3f3" stroke-miterlimit="10" stroke-width="0.41044" opacity="0.5122"/><path d="M1921.21332,421.59924S1757.92372,716.919,1497.73666,716.919s-330.16828-541.72067-658.542-541.72067c-328.37389,0-396.56087,332.61915-837.98124,332.61915" fill="none" stroke="#f3f3f3" stroke-miterlimit="10" stroke-width="0.40382" opacity="0.4878"/><path d="M1921.21332,417.5728s-163.2896,305.02484-423.47666,305.02484-330.16828-556.1524-658.542-556.1524c-328.37389,0-396.56087,330.34333-837.98124,330.34333" fill="none" stroke="#f3f3f3" stroke-miterlimit="10" stroke-width="0.3972" opacity="0.46341"/><path d="M1921.21332,413.54636s-163.2896,314.72988-423.47666,314.72988-330.16828-570.58413-658.542-570.58413c-328.37389,0-396.56087,328.06752-837.98124,328.06752" fill="none" stroke="#f3f3f3" stroke-miterlimit="10" stroke-width="0.39058" opacity="0.43902"/><path d="M1921.21332,409.51993s-163.2896,324.43491-423.47666,324.43491S1167.56838,148.939,839.19465,148.939c-328.37389,0-396.56087,325.79171-837.98124,325.79171" fill="none" stroke="#f3f3f3" stroke-miterlimit="10" stroke-width="0.38396" opacity="0.41463"/><path d="M1921.21332,405.49349s-163.2896,334.13994-423.47666,334.13994-330.16828-599.44759-658.542-599.44759c-328.37389,0-396.56087,323.51589-837.98124,323.51589" fill="none" stroke="#f3f3f3" stroke-miterlimit="10" stroke-width="0.37734" opacity="0.39024"/><path d="M1921.21332,401.467s-163.2896,343.845-423.47666,343.845-330.16828-613.87932-658.542-613.87932c-328.37389,0-396.56087,321.24008-837.98124,321.24008" fill="none" stroke="#f3f3f3" stroke-miterlimit="10" stroke-width="0.37072" opacity="0.36585"/><path d="M1921.21332,397.44061s-163.2896,353.55-423.47666,353.55-330.16828-628.31106-658.542-628.31106c-328.37389,0-396.56087,318.96427-837.98124,318.96427" fill="none" stroke="#f3f3f3" stroke-miterlimit="10" stroke-width="0.3641" opacity="0.34146"/><path d="M1921.21332,393.41417s-163.2896,363.25506-423.47666,363.25506-330.16828-642.74279-658.542-642.74279c-328.37389,0-396.56087,316.68845-837.98124,316.68845" fill="none" stroke="#f3f3f3" stroke-miterlimit="10" stroke-width="0.35748" opacity="0.31707"/><path d="M1921.21332,389.38773s-163.2896,372.9601-423.47666,372.9601-330.16828-657.17452-658.542-657.17452c-328.37389,0-396.56087,314.41263-837.98124,314.41263" fill="none" stroke="#f3f3f3" stroke-miterlimit="10" stroke-width="0.35086" opacity="0.29268"/><path d="M1921.21332,385.36129s-163.2896,382.66514-423.47666,382.66514S1167.56838,96.42017,839.19465,96.42017C510.82076,96.42017,442.63378,408.557,1.21341,408.557" fill="none" stroke="#f3f3f3" stroke-miterlimit="10" stroke-width="0.34424" opacity="0.26829"/><path d="M1921.21332,381.33486S1757.92372,773.705,1497.73666,773.705,1167.56838,87.667,839.19465,87.667c-328.37389,0-396.56087,309.861-837.98124,309.861" fill="none" stroke="#f3f3f3" stroke-miterlimit="10" stroke-width="0.33762" opacity="0.2439"/><path d="M1921.21332,377.30842s-163.2896,402.07521-423.47666,402.07521S1167.56838,78.91391,839.19465,78.91391c-328.37389,0-396.56087,307.58519-837.98124,307.58519" fill="none" stroke="#f3f3f3" stroke-miterlimit="10" stroke-width="0.331" opacity="0.21951"/><path d="M1921.21332,373.282s-163.2896,411.78025-423.47666,411.78025S1167.56838,70.16078,839.19465,70.16078c-328.37389,0-396.56087,305.30937-837.98124,305.30937" fill="none" stroke="#f3f3f3" stroke-miterlimit="10" stroke-width="0.32438" opacity="0.19512"/><path d="M1921.21332,369.25554s-163.2896,421.48529-423.47666,421.48529S1167.56838,61.40764,839.19465,61.40764c-328.37389,0-396.56087,303.03357-837.98124,303.03357" fill="none" stroke="#f3f3f3" stroke-miterlimit="10" stroke-width="0.31776" opacity="0.17073"/><path d="M1921.21332,365.2291s-163.2896,431.19033-423.47666,431.19033S1167.56838,52.65451,839.19465,52.65451c-328.37389,0-396.56087,300.75775-837.98124,300.75775" fill="none" stroke="#f3f3f3" stroke-miterlimit="10" stroke-width="0.31114" opacity="0.14634"/><path d="M1921.21332,361.20266S1757.92372,802.098,1497.73666,802.098,1167.56838,43.90138,839.19465,43.90138c-328.37389,0-396.56087,298.48193-837.98124,298.48193" fill="none" stroke="#f3f3f3" stroke-miterlimit="10" stroke-width="0.30452" opacity="0.12195"/><path d="M1921.21332,357.17622s-163.2896,450.60041-423.47666,450.60041S1167.56838,35.14824,839.19465,35.14824c-328.37389,0-396.56087,296.20612-837.98124,296.20612" fill="none" stroke="#f3f3f3" stroke-miterlimit="10" stroke-width="0.2979" opacity="0.09756"/><path d="M1921.21332,353.14979s-163.2896,460.30544-423.47666,460.30544S1167.56838,26.39511,839.19465,26.39511c-328.37389,0-396.56087,293.93031-837.98124,293.93031" fill="none" stroke="#f3f3f3" stroke-miterlimit="10" stroke-width="0.29128" opacity="0.07317"/><path d="M1921.21332,349.12335s-163.2896,470.01047-423.47666,470.01047S1167.56838,17.642,839.19465,17.642c-328.37389,0-396.56087,291.65449-837.98124,291.65449" fill="none" stroke="#f3f3f3" stroke-miterlimit="10" stroke-width="0.28466" opacity="0.04878"/><path d="M1921.21332,345.09691s-163.2896,479.71551-423.47666,479.71551S1167.56838,8.88884,839.19465,8.88884c-328.37389,0-396.56087,289.37868-837.98124,289.37868" fill="none" stroke="#f3f3f3" stroke-miterlimit="10" stroke-width="0.27804" opacity="0.02439"/><path id="d3bfb312-8d32-43ca-9d74-6f40d2d459f3" data-name="&lt;Path&gt;" d="M1921.21332,341.07047S1757.92372,830.491,1497.73666,830.491,1167.56838.13571,839.19465.13571c-328.37389,0-396.56087,287.10286-837.98124,287.10286" fill="none" stroke="#f3f3f3" stroke-miterlimit="10" stroke-width="0.27142" opacity="0"/></g><g id="baafcd49-da1b-44f3-80a1-a6e3a7510a54" data-name="&lt;Group&gt;"><path id="652d79c3-5551-4cce-bef7-0c0e2c140418" data-name="&lt;Path&gt;" d="M.146,585.27577s163.327,91.53506,423.573,91.53506c260.24655,0,330.24358-120.70061,658.69263-120.70061,328.44889,0,396.65129,262.4898,838.17264,262.4898" fill="none" stroke="#f3f3f3" stroke-miterlimit="10" stroke-width="0.54284"/><path d="M.146,581.24841S171.54965,682.49073,431.79563,682.49073c260.24655,0,322.167-138.01389,650.616-138.01389,328.44889,0,396.65129,263.09171,838.17264,263.09171" fill="none" stroke="#f3f3f3" stroke-miterlimit="10" stroke-width="0.53622" opacity="0.97561"/><path d="M.146,577.221S179.62626,688.17062,439.87224,688.17062c260.24655,0,314.09036-155.32715,642.53941-155.32715,328.44889,0,396.65129,263.69362,838.17264,263.69362" fill="none" stroke="#f3f3f3" stroke-miterlimit="10" stroke-width="0.5296" opacity="0.95122"/><path d="M.146,573.19367S187.70287,693.85051,447.94885,693.85051c260.24655,0,306.01375-172.64042,634.4628-172.64042,328.44889,0,396.65129,264.29553,838.17264,264.29553" fill="none" stroke="#f3f3f3" stroke-miterlimit="10" stroke-width="0.52298" opacity="0.92683"/><path d="M.146,569.16631S195.77948,699.5304,456.02546,699.5304c260.24655,0,297.93714-189.95369,626.38619-189.95369,328.44889,0,396.65129,264.89744,838.17264,264.89744" fill="none" stroke="#f3f3f3" stroke-miterlimit="10" stroke-width="0.51636" opacity="0.90244"/><path d="M.146,565.13894S203.85609,705.2103,464.10208,705.2103c260.24654,0,289.86052-207.267,618.30957-207.267,328.44889,0,396.65129,265.49935,838.17264,265.49935" fill="none" stroke="#f3f3f3" stroke-miterlimit="10" stroke-width="0.50974" opacity="0.87805"/><path d="M.146,561.11158S211.9327,710.89019,472.17869,710.89019c260.24654,0,281.78391-224.58023,610.233-224.58023,328.44889,0,396.65129,266.10126,838.17264,266.10126" fill="none" stroke="#f3f3f3" stroke-miterlimit="10" stroke-width="0.50312" opacity="0.85366"/><path d="M.146,557.08421S220.00931,716.57008,480.2553,716.57008c260.24654,0,273.7073-241.8935,602.15635-241.8935,328.44889,0,396.65129,266.70317,838.17264,266.70317" fill="none" stroke="#f3f3f3" stroke-miterlimit="10" stroke-width="0.4965" opacity="0.82927"/><path d="M.146,553.05684S228.08592,722.25,488.33191,722.25c260.24654,0,265.63069-259.20676,594.07974-259.20676,328.44889,0,396.65129,267.30508,838.17264,267.30508" fill="none" stroke="#f3f3f3" stroke-miterlimit="10" stroke-width="0.48988" opacity="0.80488"/><path d="M.146,549.02948S236.16253,727.92987,496.40852,727.92987c260.24654,0,257.55408-276.52,586.00313-276.52,328.44889,0,396.65129,267.907,838.17264,267.907" fill="none" stroke="#f3f3f3" stroke-miterlimit="10" stroke-width="0.48326" opacity="0.78049"/><path d="M.146,545.00211S244.23914,733.60976,504.48513,733.60976c260.24654,0,249.47747-293.83331,577.92652-293.83331,328.44889,0,396.65129,268.5089,838.17264,268.5089" fill="none" stroke="#f3f3f3" stroke-miterlimit="10" stroke-width="0.47664" opacity="0.7561"/><path d="M.146,540.97474S252.31575,739.28965,512.56174,739.28965c260.24654,0,241.40086-311.14657,569.84991-311.14657,328.44889,0,396.65129,269.11081,838.17264,269.11081" fill="none" stroke="#f3f3f3" stroke-miterlimit="10" stroke-width="0.47002" opacity="0.73171"/><path d="M.146,536.94738S260.39236,744.96954,520.63836,744.96954c260.24653,0,233.32424-328.45984,561.77329-328.45984,328.44889,0,396.65129,269.71272,838.17264,269.71272" fill="none" stroke="#f3f3f3" stroke-miterlimit="10" stroke-width="0.4634" opacity="0.70732"/><path d="M.146,532.92S268.469,750.64944,528.715,750.64944c260.24653,0,225.24763-345.77312,553.69668-345.77312,328.44889,0,396.65129,270.31463,838.17264,270.31463" fill="none" stroke="#f3f3f3" stroke-miterlimit="10" stroke-width="0.45678" opacity="0.68293"/><path d="M.146,528.89265S276.54558,756.32933,536.79158,756.32933c260.24653,0,217.171-363.08639,545.62007-363.08639,328.44889,0,396.65129,270.91655,838.17264,270.91655" fill="none" stroke="#f3f3f3" stroke-miterlimit="10" stroke-width="0.45016" opacity="0.65854"/><path d="M.146,524.86528s284.4762,237.14394,544.7222,237.14394c260.24653,0,209.09441-380.39965,537.54346-380.39965,328.44889,0,396.65129,271.51845,838.17264,271.51845" fill="none" stroke="#f3f3f3" stroke-miterlimit="10" stroke-width="0.44354" opacity="0.63415"/><path d="M.146,520.83791s292.55282,246.8512,552.79881,246.8512c260.24653,0,201.0178-397.71292,529.46685-397.71292,328.44889,0,396.65129,272.12036,838.17264,272.12036" fill="none" stroke="#f3f3f3" stroke-miterlimit="10" stroke-width="0.43692" opacity="0.60976"/><path d="M.146,516.81055S300.77542,773.369,561.02141,773.369c260.24653,0,192.94119-415.0262,521.39024-415.0262,328.44889,0,396.65129,272.72228,838.17264,272.72228" fill="none" stroke="#f3f3f3" stroke-miterlimit="10" stroke-width="0.4303" opacity="0.58537"/><path d="M.146,512.78318S308.852,779.0489,569.098,779.0489c260.24653,0,184.86458-432.33946,513.31363-432.33946,328.44889,0,396.65129,273.32418,838.17264,273.32418" fill="none" stroke="#f3f3f3" stroke-miterlimit="10" stroke-width="0.42368" opacity="0.56098"/><path d="M.146,508.75582s316.78265,275.973,577.02864,275.973c260.24653,0,176.788-449.65273,505.237-449.65273,328.44889,0,396.65129,273.92609,838.17264,273.92609" fill="none" stroke="#f3f3f3" stroke-miterlimit="10" stroke-width="0.41706" opacity="0.53659"/><path d="M.146,504.72845S325.00525,790.40868,585.25125,790.40868c260.24652,0,168.71135-466.966,497.1604-466.966,328.44889,0,396.65129,274.528,838.17264,274.528" fill="none" stroke="#f3f3f3" stroke-miterlimit="10" stroke-width="0.41044" opacity="0.5122"/><path d="M.146,500.70108S333.08186,796.08857,593.32786,796.08857c260.24652,0,160.63474-484.27926,489.08379-484.27926,328.44889,0,396.65129,275.12991,838.17264,275.12991" fill="none" stroke="#f3f3f3" stroke-miterlimit="10" stroke-width="0.40382" opacity="0.4878"/><path d="M.146,496.67372S341.15847,801.76847,601.40447,801.76847c260.24652,0,152.55813-501.59254,481.00718-501.59254,328.44889,0,396.65129,275.73182,838.17264,275.73182" fill="none" stroke="#f3f3f3" stroke-miterlimit="10" stroke-width="0.3972" opacity="0.46341"/><path d="M.146,492.64635s349.08909,314.802,609.33509,314.802c260.24652,0,144.48152-518.90581,472.93057-518.90581,328.44889,0,396.65129,276.33374,838.17264,276.33374" fill="none" stroke="#f3f3f3" stroke-miterlimit="10" stroke-width="0.39058" opacity="0.43902"/><path d="M.146,488.619s357.1657,324.50926,617.4117,324.50926c260.24652,0,136.40491-536.21907,464.854-536.21907,328.44889,0,396.65129,276.93564,838.17264,276.93564" fill="none" stroke="#f3f3f3" stroke-miterlimit="10" stroke-width="0.38396" opacity="0.41463"/><path d="M.146,484.59162S365.3883,818.80814,625.6343,818.80814c260.24652,0,128.3283-553.53234,456.77735-553.53234,328.44889,0,396.65129,277.53755,838.17264,277.53755" fill="none" stroke="#f3f3f3" stroke-miterlimit="10" stroke-width="0.37734" opacity="0.39024"/><path d="M.146,480.56425S373.46491,824.488,633.71091,824.488c260.24652,0,120.25169-570.84562,448.70074-570.84562,328.44889,0,396.65129,278.13947,838.17264,278.13947" fill="none" stroke="#f3f3f3" stroke-miterlimit="10" stroke-width="0.37072" opacity="0.36585"/><path d="M.146,476.53689s381.39553,353.631,641.64154,353.631c260.2465,0,112.17507-588.15889,440.62412-588.15889,328.44889,0,396.65129,278.74138,838.17264,278.74138" fill="none" stroke="#f3f3f3" stroke-miterlimit="10" stroke-width="0.3641" opacity="0.34146"/><path d="M.146,472.50952s389.47214,363.3383,649.71815,363.3383c260.2465,0,104.09846-605.47215,432.54751-605.47215,328.44889,0,396.65129,279.34328,838.17264,279.34328" fill="none" stroke="#f3f3f3" stroke-miterlimit="10" stroke-width="0.35748" opacity="0.31707"/><path d="M.146,468.48216S397.69474,841.52771,657.94075,841.52771c260.2465,0,96.02185-622.78542,424.4709-622.78542,328.44889,0,396.65129,279.9452,838.17264,279.9452" fill="none" stroke="#f3f3f3" stroke-miterlimit="10" stroke-width="0.35086" opacity="0.29268"/><path d="M.146,464.45479S405.77135,847.20761,666.01736,847.20761c260.2465,0,87.94524-640.0987,416.39429-640.0987,328.44889,0,396.65129,280.54711,838.17264,280.54711" fill="none" stroke="#f3f3f3" stroke-miterlimit="10" stroke-width="0.34424" opacity="0.26829"/><path d="M.146,460.42742S413.848,852.8875,674.094,852.8875c260.2465,0,79.86863-657.412,408.31768-657.412,328.44889,0,396.65129,281.149,838.17264,281.149" fill="none" stroke="#f3f3f3" stroke-miterlimit="10" stroke-width="0.33762" opacity="0.2439"/><path d="M.146,456.40006S421.92457,858.56739,682.17058,858.56739c260.2465,0,71.792-674.72523,400.24107-674.72523,328.44889,0,396.65129,281.75093,838.17264,281.75093" fill="none" stroke="#f3f3f3" stroke-miterlimit="10" stroke-width="0.331" opacity="0.21951"/><path d="M.146,452.37269s429.85519,411.87459,690.1012,411.87459c260.2465,0,63.71541-692.0385,392.16446-692.0385,328.44889,0,396.65129,282.35284,838.17264,282.35284" fill="none" stroke="#f3f3f3" stroke-miterlimit="10" stroke-width="0.32438" opacity="0.19512"/><path d="M.146,448.34532S438.07779,869.92718,698.3238,869.92718c260.2465,0,55.6388-709.35177,384.08785-709.35177,328.44889,0,396.65129,282.95475,838.17264,282.95475" fill="none" stroke="#f3f3f3" stroke-miterlimit="10" stroke-width="0.31776" opacity="0.17073"/><path d="M.146,444.318S446.1544,875.60707,706.40042,875.60707c260.24649,0,47.56218-726.665,376.01123-726.665,328.44889,0,396.65129,283.55666,838.17264,283.55666" fill="none" stroke="#f3f3f3" stroke-miterlimit="10" stroke-width="0.31114" opacity="0.14634"/><path d="M.146,440.29059S454.231,881.287,714.477,881.287c260.24649,0,39.48557-743.97831,367.93462-743.97831,328.44889,0,396.65129,284.15857,838.17264,284.15857" fill="none" stroke="#f3f3f3" stroke-miterlimit="10" stroke-width="0.30452" opacity="0.12195"/><path d="M.146,436.26323S462.30762,886.96685,722.55364,886.96685c260.24649,0,31.409-761.29157,359.858-761.29157,328.44889,0,396.65129,284.76048,838.17264,284.76048" fill="none" stroke="#f3f3f3" stroke-miterlimit="10" stroke-width="0.2979" opacity="0.09756"/><path d="M.146,432.23586S470.38423,892.64675,730.63025,892.64675c260.24649,0,23.33235-778.60485,351.7814-778.60485,328.44889,0,396.65129,285.36239,838.17264,285.36239" fill="none" stroke="#f3f3f3" stroke-miterlimit="10" stroke-width="0.29128" opacity="0.07317"/><path d="M.146,428.20849S478.46084,898.32664,738.70686,898.32664c260.24649,0,15.25574-795.91812,343.70479-795.91812,328.44889,0,396.65129,285.9643,838.17264,285.9643" fill="none" stroke="#f3f3f3" stroke-miterlimit="10" stroke-width="0.28466" opacity="0.04878"/><path d="M.146,424.18113s486.39146,479.8254,746.63748,479.8254c260.24649,0,7.17913-813.23138,335.62818-813.23138,328.44889,0,396.65129,286.56621,838.17264,286.56621" fill="none" stroke="#f3f3f3" stroke-miterlimit="10" stroke-width="0.27804" opacity="0.02439"/><path id="ef18cd44-ee8d-40f4-89a8-65c9d3bc95b5" data-name="&lt;Path&gt;" d="M.146,420.15376S494.61406,909.68642,754.86008,909.68642c260.24649,0-.89748-830.54465,327.55157-830.54465,328.44889,0,396.65129,287.16812,838.17264,287.16812" fill="none" stroke="#f3f3f3" stroke-miterlimit="10" stroke-width="0.27142" opacity="0"/></g><g id="02c719b0-f833-400d-bf6c-971eca886844" data-name="&lt;Group&gt;"><path id="c0c743e6-2798-4ca2-9c1b-cf07096f1a24" data-name="&lt;Path&gt;" d="M1921.21321,438.87158s-163.28134-78.26935-423.45467-78.26935c-260.17375,0-330.15161,103.20786-658.50843,103.20786S442.70976,239.36121,1.31151,239.36121" fill="none" stroke="#f3f3f3" stroke-miterlimit="10" stroke-width="0.54284"/><path d="M1921.21321,442.31528s-171.35569-86.56979-431.529-86.56979c-260.17374,0-322.07725,118.012-650.43407,118.012S442.70976,248.794,1.31151,248.794" fill="none" stroke="#f3f3f3" stroke-miterlimit="10" stroke-width="0.53676" opacity="0.97561"/><path d="M1921.21321,445.759s-179.43-94.87024-439.60339-94.87024c-260.17373,0-314.00289,132.81623-642.35971,132.81623S442.70976,258.22672,1.31151,258.22672" fill="none" stroke="#f3f3f3" stroke-miterlimit="10" stroke-width="0.53068" opacity="0.95122"/><path d="M1921.21321,449.20268S1733.70882,346.032,1473.53546,346.032c-260.17373,0-305.92853,147.62043-634.28535,147.62043S442.70976,267.65948,1.31151,267.65948" fill="none" stroke="#f3f3f3" stroke-miterlimit="10" stroke-width="0.5246" opacity="0.92683"/><path d="M1921.21321,452.64638S1725.63446,341.17525,1465.4611,341.17525c-260.17372,0-297.85417,162.42461-626.211,162.42461S442.70976,277.09223,1.31151,277.09223" fill="none" stroke="#f3f3f3" stroke-miterlimit="10" stroke-width="0.51851" opacity="0.90244"/><path d="M1921.21321,456.09008S1717.56011,336.3185,1457.38674,336.3185c-260.17371,0-289.77981,177.2288-618.13663,177.2288S442.70976,286.525,1.31151,286.525" fill="none" stroke="#f3f3f3" stroke-miterlimit="10" stroke-width="0.51243" opacity="0.87805"/><path d="M1921.21321,459.53378s-211.72745-128.072-471.90083-128.072c-260.1737,0-281.70545,192.033-610.06227,192.033s-396.54035-227.537-837.9386-227.537" fill="none" stroke="#f3f3f3" stroke-miterlimit="10" stroke-width="0.50635" opacity="0.85366"/><path d="M1921.21321,462.97748S1701.41141,326.605,1441.238,326.605c-260.1737,0-273.63109,206.83717-601.98791,206.83717S442.70976,305.3905,1.31151,305.3905" fill="none" stroke="#f3f3f3" stroke-miterlimit="10" stroke-width="0.50027" opacity="0.82927"/><path d="M1921.21321,466.42118s-227.87616-144.67292-488.04954-144.67292c-260.1737,0-265.55674,221.64136-593.91356,221.64136S442.70976,314.82325,1.31151,314.82325" fill="none" stroke="#f3f3f3" stroke-miterlimit="10" stroke-width="0.49419" opacity="0.80488"/><path d="M1921.21321,469.86488s-235.95051-152.97336-496.1239-152.97336c-260.17369,0-257.48238,236.44554-585.8392,236.44554S442.70976,324.256,1.31151,324.256" fill="none" stroke="#f3f3f3" stroke-miterlimit="10" stroke-width="0.4881" opacity="0.78049"/><path d="M1921.21321,473.30858S1677.18835,312.03477,1417.015,312.03477c-260.17368,0-249.408,251.24974-577.76484,251.24974S442.70976,333.68877,1.31151,333.68877" fill="none" stroke="#f3f3f3" stroke-miterlimit="10" stroke-width="0.48202" opacity="0.7561"/><path d="M1921.21321,476.75228S1669.114,307.178,1408.94059,307.178c-260.17367,0-241.33366,266.05393-569.69048,266.05393S442.70976,343.12152,1.31151,343.12152" fill="none" stroke="#f3f3f3" stroke-miterlimit="10" stroke-width="0.47594" opacity="0.73171"/><path d="M1921.21321,480.196s-260.17356-177.8747-520.347-177.8747c-260.17367,0-233.2593,280.85811-561.61612,280.85811S442.70976,352.55428,1.31151,352.55428" fill="none" stroke="#f3f3f3" stroke-miterlimit="10" stroke-width="0.46986" opacity="0.70732"/><path d="M1921.21321,483.63968s-268.24792-186.17515-528.42134-186.17515c-260.17366,0-225.18494,295.6623-553.54176,295.6623S442.70976,361.987,1.31151,361.987" fill="none" stroke="#f3f3f3" stroke-miterlimit="10" stroke-width="0.46378" opacity="0.68293"/><path d="M1921.21321,487.08338s-276.32227-194.4756-536.4957-194.4756c-260.17365,0-217.11058,310.46649-545.4674,310.46649S442.70976,371.41979,1.31151,371.41979" fill="none" stroke="#f3f3f3" stroke-miterlimit="10" stroke-width="0.45769" opacity="0.65854"/><path d="M1921.21321,490.52708s-284.39662-202.776-544.57006-202.776c-260.17364,0-209.03622,325.27067-537.393,325.27067S442.70976,380.85254,1.31151,380.85254" fill="none" stroke="#f3f3f3" stroke-miterlimit="10" stroke-width="0.45161" opacity="0.63415"/><path d="M1921.21321,493.97078s-292.471-211.07649-552.64442-211.07649c-260.17364,0-200.96186,340.07486-529.31868,340.07486S442.70976,390.2853,1.31151,390.2853" fill="none" stroke="#f3f3f3" stroke-miterlimit="10" stroke-width="0.44553" opacity="0.60976"/><path d="M1921.21321,497.41448s-300.54533-219.37693-560.71878-219.37693c-260.17363,0-192.8875,354.87905-521.24432,354.87905S442.70976,399.71805,1.31151,399.71805" fill="none" stroke="#f3f3f3" stroke-miterlimit="10" stroke-width="0.43945" opacity="0.58537"/><path d="M1921.21321,500.85818S1612.59353,273.1808,1352.42008,273.1808c-260.17363,0-184.81315,369.68324-513.17,369.68324S442.70976,409.15081,1.31151,409.15081" fill="none" stroke="#f3f3f3" stroke-miterlimit="10" stroke-width="0.43337" opacity="0.56098"/><path d="M1921.21321,504.30188s-316.694-235.97783-576.86749-235.97783c-260.17362,0-176.73879,384.48743-505.09561,384.48743S442.70976,418.58356,1.31151,418.58356" fill="none" stroke="#f3f3f3" stroke-miterlimit="10" stroke-width="0.42728" opacity="0.53659"/><path d="M1921.21321,507.74558s-324.76838-244.27827-584.94185-244.27827S1167.60693,662.75892,839.25011,662.75892,442.70976,428.01632,1.31151,428.01632" fill="none" stroke="#f3f3f3" stroke-miterlimit="10" stroke-width="0.4212" opacity="0.5122"/><path d="M1921.21321,511.18928S1588.37048,258.61056,1328.197,258.61056s-160.59007,414.0958-488.94689,414.0958S442.70976,437.44907,1.31151,437.44907" fill="none" stroke="#f3f3f3" stroke-miterlimit="10" stroke-width="0.41512" opacity="0.4878"/><path d="M1921.21321,514.633s-340.91709-260.87917-601.09057-260.87917-152.51571,428.9-480.87253,428.9-396.54035-235.772-837.9386-235.772" fill="none" stroke="#f3f3f3" stroke-miterlimit="10" stroke-width="0.40904" opacity="0.46341"/><path d="M1921.21321,518.07668s-348.99144-269.17961-609.16493-269.17961S1167.60693,692.60124,839.25011,692.60124,442.70976,456.31459,1.31151,456.31459" fill="none" stroke="#f3f3f3" stroke-miterlimit="10" stroke-width="0.40296" opacity="0.43902"/><path d="M1921.21321,521.52038s-357.06579-277.48006-617.23929-277.48006-136.367,458.50837-464.72381,458.50837S442.70976,465.74734,1.31151,465.74734" fill="none" stroke="#f3f3f3" stroke-miterlimit="10" stroke-width="0.39687" opacity="0.41463"/><path d="M1921.21321,524.96408s-365.14014-285.7805-625.31365-285.7805S1167.60693,712.49613,839.25011,712.49613,442.70976,475.1801,1.31151,475.1801" fill="none" stroke="#f3f3f3" stroke-miterlimit="10" stroke-width="0.39079" opacity="0.39024"/><path d="M1921.21321,528.40778s-373.2145-294.081-633.388-294.081S1167.60693,722.44357,839.25011,722.44357,442.70976,484.61285,1.31151,484.61285" fill="none" stroke="#f3f3f3" stroke-miterlimit="10" stroke-width="0.38471" opacity="0.36585"/><path d="M1921.21321,531.85148s-381.28885-302.3814-641.46236-302.3814S1167.60693,732.391,839.25011,732.391,442.70976,494.04561,1.31151,494.04561" fill="none" stroke="#f3f3f3" stroke-miterlimit="10" stroke-width="0.37863" opacity="0.34146"/><path d="M1921.21321,535.29518S1531.85,224.61334,1271.67649,224.61334,1167.60693,742.33845,839.25011,742.33845,442.70976,503.47836,1.31151,503.47836" fill="none" stroke="#f3f3f3" stroke-miterlimit="10" stroke-width="0.37255" opacity="0.31707"/><path d="M1921.21321,538.73888s-397.43755-318.98229-657.61108-318.98229-95.9952,532.5293-424.352,532.5293S442.70976,512.91112,1.31151,512.91112" fill="none" stroke="#f3f3f3" stroke-miterlimit="10" stroke-width="0.36646" opacity="0.29268"/><path d="M1921.21321,542.18258S1515.7013,214.89984,1255.52777,214.89984s-87.92084,547.33349-416.27766,547.33349S442.70976,522.34387,1.31151,522.34387" fill="none" stroke="#f3f3f3" stroke-miterlimit="10" stroke-width="0.36038" opacity="0.26829"/><path d="M1921.21321,545.62628S1507.627,210.0431,1247.45341,210.0431s-79.84648,562.13768-408.2033,562.13768S442.70976,531.77663,1.31151,531.77663" fill="none" stroke="#f3f3f3" stroke-miterlimit="10" stroke-width="0.3543" opacity="0.2439"/><path d="M1921.21321,549.07S1499.5526,205.18635,1239.37905,205.18635s-71.77212,576.94187-400.12894,576.94187S442.70976,541.20938,1.31151,541.20938" fill="none" stroke="#f3f3f3" stroke-miterlimit="10" stroke-width="0.34822" opacity="0.21951"/><path d="M1921.21321,552.51368s-429.735-352.18408-689.90852-352.18408-63.69776,591.74606-392.05458,591.74606S442.70976,550.64214,1.31151,550.64214" fill="none" stroke="#f3f3f3" stroke-miterlimit="10" stroke-width="0.34214" opacity="0.19512"/><path d="M1921.21321,555.95738S1483.4039,195.47286,1223.23033,195.47286,1167.60693,802.0231,839.25011,802.0231,442.70976,560.07489,1.31151,560.07489" fill="none" stroke="#f3f3f3" stroke-miterlimit="10" stroke-width="0.33605" opacity="0.17073"/><path d="M1921.21321,559.40108s-445.88367-368.785-706.05724-368.785-47.549,621.35443-375.90586,621.35443S442.70976,569.50765,1.31151,569.50765" fill="none" stroke="#f3f3f3" stroke-miterlimit="10" stroke-width="0.32997" opacity="0.14634"/><path d="M1921.21321,562.84478s-453.958-377.08541-714.1316-377.08541S1167.60693,821.918,839.25011,821.918,442.70976,578.94041,1.31151,578.94041" fill="none" stroke="#f3f3f3" stroke-miterlimit="10" stroke-width="0.32389" opacity="0.12195"/><path d="M1921.21321,566.28848s-462.03237-385.38586-722.20595-385.38586-31.40033,650.9628-359.75715,650.9628S442.70976,588.37316,1.31151,588.37316" fill="none" stroke="#f3f3f3" stroke-miterlimit="10" stroke-width="0.31781" opacity="0.09756"/><path d="M1921.21321,569.73218S1451.10649,176.04587,1190.9329,176.04587s-23.326,665.767-351.68279,665.767S442.70976,597.80592,1.31151,597.80592" fill="none" stroke="#f3f3f3" stroke-miterlimit="10" stroke-width="0.31173" opacity="0.07317"/><path d="M1921.21321,573.17588s-478.18108-401.98675-738.35467-401.98675-15.25161,680.57118-343.60843,680.57118S442.70976,607.23867,1.31151,607.23867" fill="none" stroke="#f3f3f3" stroke-miterlimit="10" stroke-width="0.30564" opacity="0.04878"/><path d="M1921.21321,576.61957s-486.25543-410.28719-746.429-410.28719-7.17725,695.37537-335.53407,695.37537S442.70976,616.67143,1.31151,616.67143" fill="none" stroke="#f3f3f3" stroke-miterlimit="10" stroke-width="0.29956" opacity="0.02439"/><path id="ac6fef3c-961b-41ae-abbb-34c3d48be211" data-name="&lt;Path&gt;" d="M1921.21321,580.06327s-494.32978-418.58764-754.50339-418.58764.89711,710.17956-327.45971,710.17956-396.54035-245.551-837.9386-245.551" fill="none" stroke="#f3f3f3" stroke-miterlimit="10" stroke-width="0.29348" opacity="0"/></g><g id="601aaf15-52a1-48ae-9f7f-28e863f95914" data-name="&lt;Group&gt;" opacity="0.17"><polyline id="21a0af13-091d-4095-8956-aa5ae073ee6c" data-name="&lt;Path&gt;" points="1594.117 394.24 1782.463 327.495 1577.406 320.894 1719.101 222.977 1564.525 211.975" fill="none" stroke="#fff" stroke-miterlimit="10" stroke-width="0.74396"/><polyline id="829298ff-99f1-425f-8a88-c3069e49a3bd" data-name="&lt;Path&gt;" points="1452.074 357.934 1382.445 205.74 1564.525 211.975 1452.074 357.934 1594.117 394.24 1413.082 437.514 1551.643 495.457 1482.015 609.144 1656.783 529.197 1566.962 448.516 1774.456 385.438 1594.117 394.24 1566.962 448.516" fill="none" stroke="#fff" stroke-miterlimit="10" stroke-width="0.74396"/><polygon id="2dafebd4-4275-4e54-9cf4-290ff4afd85e" data-name="&lt;Path&gt;" points="1301.676 538.732 1413.082 437.514 1482.015 609.144 1301.676 538.732" fill="none" stroke="#fff" stroke-miterlimit="10" stroke-width="0.74396"/><polyline id="7f7da8e6-d359-4bcf-97a9-947da1e69482" data-name="&lt;Path&gt;" points="1656.783 529.197 1773.063 573.938 1674.887 642.883 1482.015 609.144 1514.044 650.951 1313.513 653.152" fill="none" stroke="#fff" stroke-miterlimit="10" stroke-width="0.74396"/><polygon id="371c2719-8b73-4196-8469-819f3123b862" data-name="&lt;Path&gt;" points="1538.414 711.828 1486.888 730.165 1419.348 685.424 1514.044 650.951 1538.414 711.828" fill="none" stroke="#fff" stroke-miterlimit="10" stroke-width="0.74396"/><line id="4c7fcda2-ecf3-4e27-8eae-5a0198d0d182" data-name="&lt;Path&gt;" x1="1343.45285" y1="401.57462" x2="1250.15023" y2="368.56866" fill="none" stroke="#fff" stroke-miterlimit="10" stroke-width="0.74396"/><line id="4f2124ad-9831-466c-bdac-0d03ce45adc9" data-name="&lt;Path&gt;" x1="1413.08189" y1="437.51411" x2="1452.0741" y2="357.93356" fill="none" stroke="#fff" stroke-miterlimit="10" stroke-width="0.74396"/><polyline id="a677e9d0-ccfd-49d8-9419-f72a83058247" data-name="&lt;Path&gt;" points="1564.525 211.975 1577.406 320.894 1452.074 357.934 1343.453 401.575 1413.082 437.514 1566.962 448.516 1551.643 495.457 1656.783 529.197 1812.055 436.781 1566.962 448.516" fill="none" stroke="#fff" stroke-miterlimit="10" stroke-width="0.74396"/><line id="d17cd94b-ebdd-4309-9b26-8f2b00bd9500" data-name="&lt;Path&gt;" x1="1719.10093" y1="222.97674" x2="1782.46312" y2="327.49483" fill="none" stroke="#fff" stroke-miterlimit="10" stroke-width="0.74396"/><polyline id="cf1e7c00-3c6c-4512-9847-d53345009e50" data-name="&lt;Path&gt;" points="1313.513 653.152 1301.676 538.732 1241.795 567.336" fill="none" stroke="#fff" stroke-miterlimit="10" stroke-width="0.74396"/><polyline id="055b2152-273d-4824-b141-a2083b8b4684" data-name="&lt;Path&gt;" points="1340.434 733.901 1435.636 792.626 1559.141 778.171 1789.856 837.799" fill="none" stroke="#fff" stroke-miterlimit="10" stroke-width="0.74396"/><polyline id="ef7519ef-b9a3-4e33-9d20-7643d9b5181b" data-name="&lt;Path&gt;" points="1187.768 518.877 1257.24 461.959 1413.082 437.514" fill="none" stroke="#fff" stroke-miterlimit="10" stroke-width="0.74396"/><polyline id="156ee59d-6f92-4376-9b66-c2eb54002f1f" data-name="&lt;Path&gt;" points="1677.5 724.866 1538.414 711.828 1747.301 650.218" fill="none" stroke="#fff" stroke-miterlimit="10" stroke-width="0.74396"/><polyline id="158b5127-917c-41c3-aa4e-ec0869664b45" data-name="&lt;Path&gt;" points="1138.023 336.377 1230.652 252.355 1382.445 205.74" fill="none" stroke="#fff" stroke-miterlimit="10" stroke-width="0.74396"/><path id="db115775-6c8e-48fd-aea8-21ff3d721f5a" data-name="&lt;Path&gt;" d="M1141.45335,336.15167a3.43534,3.43534,0,1,1-3.43076-3.614A3.52587,3.52587,0,0,1,1141.45335,336.15167Z" fill="#fff"/><path id="70a16960-9938-4ee7-8bd3-e1d6dda7970c" data-name="&lt;Path&gt;" d="M1253.59437,368.45043a3.43528,3.43528,0,1,1-3.43076-3.61412A3.52573,3.52573,0,0,1,1253.59437,368.45043Z" fill="#fff"/><path id="07bd5035-4d53-40b7-9109-70d9e16dd377" data-name="&lt;Path&gt;" d="M1191.19861,518.42524a3.43539,3.43539,0,1,1-3.43076-3.614A3.526,3.526,0,0,1,1191.19861,518.42524Z" fill="#fff"/><path id="0fb853ad-0aeb-455b-8a3f-5b0e183ecb28" data-name="&lt;Path&gt;" d="M1246.08981,567.66385a3.43532,3.43532,0,1,1-3.43076-3.6137A3.52582,3.52582,0,0,1,1246.08981,567.66385Z" fill="#fff"/><path id="dfabcb7a-22da-439f-943b-b21a7ca0ceb8" data-name="&lt;Path&gt;" d="M1305.26942,539.65665a3.43533,3.43533,0,1,1-3.43076-3.61384A3.52569,3.52569,0,0,1,1305.26942,539.65665Z" fill="#fff"/><path id="e89e9201-5059-41e9-8dd3-95dd17d7ca6f" data-name="&lt;Path&gt;" d="M1485.80993,608.7714a3.4352,3.4352,0,1,1-3.43063-3.61371A3.52561,3.52561,0,0,1,1485.80993,608.7714Z" fill="#fff"/><ellipse id="20fc1cba-99a1-4d03-b33d-ea0bfb8618fa" data-name="&lt;Path&gt;" cx="1551.5294" cy="494.93527" rx="3.43062" ry="3.61384" fill="#fff"/><path id="7e55700c-0228-42d8-8b0b-4a20e22da54b" data-name="&lt;Path&gt;" d="M1660.2398,528.9279a3.43532,3.43532,0,1,1-3.43076-3.6137A3.52573,3.52573,0,0,1,1660.2398,528.9279Z" fill="#fff"/><path id="4dfd7759-a847-4cb0-a842-d27613fa6573" data-name="&lt;Path&gt;" d="M1814.29987,437.11368a3.4354,3.4354,0,1,1-3.43076-3.614A3.526,3.526,0,0,1,1814.29987,437.11368Z" fill="#fff"/><path id="a3a1dd39-9c19-4450-8a19-08b570f7e28a" data-name="&lt;Path&gt;" d="M1779.88551,384.93852a3.43526,3.43526,0,1,1-3.43089-3.61384A3.52571,3.52571,0,0,1,1779.88551,384.93852Z" fill="#fff"/><path id="858ad1ee-8c67-41b1-bf9e-d6bf19da0fa8" data-name="&lt;Path&gt;" d="M1516.68635,650.55666a3.43539,3.43539,0,1,1-3.43076-3.61371A3.52589,3.52589,0,0,1,1516.68635,650.55666Z" fill="#fff"/><path id="7b95cb6b-9a5b-4a44-927e-70979be0a04e" data-name="&lt;Path&gt;" d="M1317.0624,652.81534a3.43534,3.43534,0,1,1-3.43076-3.61384A3.52582,3.52582,0,0,1,1317.0624,652.81534Z" fill="#fff"/><path id="7f2c5780-c080-47e4-b177-f3ae6a59ab9e" data-name="&lt;Path&gt;" d="M1423.84316,685.6789a3.43548,3.43548,0,1,1-3.4309-3.614A3.526,3.526,0,0,1,1423.84316,685.6789Z" fill="#fff"/><path id="fa01cdd6-a452-4723-9514-ac165dbf957b" data-name="&lt;Path&gt;" d="M1542.52377,711.42742a3.43535,3.43535,0,1,1-3.43065-3.61384A3.5259,3.5259,0,0,1,1542.52377,711.42742Z" fill="#fff"/><path id="75fb28c0-4e4d-4c9b-99e3-da4157f29364" data-name="&lt;Path&gt;" d="M1749.97419,650.78247a3.43546,3.43546,0,1,1-3.4309-3.61384A3.526,3.526,0,0,1,1749.97419,650.78247Z" fill="#fff"/><path id="0f008a32-820c-4e04-b225-84e2ff603fb8" data-name="&lt;Path&gt;" d="M1678.89415,642.31254a3.43533,3.43533,0,1,1-3.43075-3.61384A3.526,3.526,0,0,1,1678.89415,642.31254Z" fill="#fff"/><path id="bc8057ca-2475-450f-aca2-142262d002f0" data-name="&lt;Path&gt;" d="M1776.34744,574.89167a3.43534,3.43534,0,1,1-3.43062-3.614A3.526,3.526,0,0,1,1776.34744,574.89167Z" fill="#fff"/><path id="1e7c3480-c29b-43a1-a147-1fc596e69147" data-name="&lt;Path&gt;" d="M1680.824,724.97925a3.43533,3.43533,0,1,1-3.43076-3.61384A3.526,3.526,0,0,1,1680.824,724.97925Z" fill="#fff"/><path id="34c277c6-1870-4ddc-a9f9-9cc534852134" data-name="&lt;Path&gt;" d="M1344.18641,734.014a3.43534,3.43534,0,1,1-3.43063-3.61384A3.52588,3.52588,0,0,1,1344.18641,734.014Z" fill="#fff"/><path id="ae65ba37-259c-4064-b187-0b0bbcc767c7" data-name="&lt;Path&gt;" d="M1439.49556,792.62634a3.43534,3.43534,0,1,1-3.43076-3.614A3.52578,3.52578,0,0,1,1439.49556,792.62634Z" fill="#fff"/><ellipse id="36fc1353-b320-4519-8c43-2617308d2f92" data-name="&lt;Path&gt;" cx="1559.99893" cy="779.526" rx="3.43074" ry="3.61384" fill="#fff"/><path id="5c2326e5-60d0-461f-a036-4d0481e1f7d9" data-name="&lt;Path&gt;" d="M1793.71559,838.70275a3.43539,3.43539,0,1,1-3.43076-3.61371A3.52582,3.52582,0,0,1,1793.71559,838.70275Z" fill="#fff"/><ellipse id="0e59ef0d-8b27-457b-80c0-575093fdcf29" data-name="&lt;Path&gt;" cx="1452.46784" cy="357.6089" rx="3.43076" ry="3.61384" fill="#fff"/><path id="0e27923d-c0b8-4928-bfa1-af7a68f9f583" data-name="&lt;Path&gt;" d="M1347.83151,401.87839a3.43533,3.43533,0,1,1-3.43062-3.61384A3.5257,3.5257,0,0,1,1347.83151,401.87839Z" fill="#fff"/><path id="055e1912-bd0c-4f3f-ba7f-8eb6f3d19e14" data-name="&lt;Path&gt;" d="M1416.66,437.5653a3.43534,3.43534,0,1,1-3.43076-3.614A3.52591,3.52591,0,0,1,1416.66,437.5653Z" fill="#fff"/><path id="ff156763-35c4-4cc4-9458-8a2b2da327c0" data-name="&lt;Path&gt;" d="M1260.67037,461.507a3.4354,3.4354,0,1,1-3.43076-3.61385A3.526,3.526,0,0,1,1260.67037,461.507Z" fill="#fff"/><path id="478fb15c-e900-45f7-8b0d-349421c77d49" data-name="&lt;Path&gt;" d="M1787.17572,328.24627a3.43534,3.43534,0,1,1-3.43076-3.614A3.52589,3.52589,0,0,1,1787.17572,328.24627Z" fill="#fff"/><ellipse id="f7301fdd-0ffb-43e5-8e07-04805dd0b932" data-name="&lt;Path&gt;" cx="1718.99046" cy="224.348" rx="3.43077" ry="3.61384" fill="#fff"/><path id="a93d8c3b-dd50-47aa-adef-b9e726ed5b64" data-name="&lt;Path&gt;" d="M1596.45014,394.6507a3.43535,3.43535,0,1,1-3.43078-3.61384A3.52593,3.52593,0,0,1,1596.45014,394.6507Z" fill="#fff"/><path id="3401d2fb-7c37-4d0e-b926-e1bf1c7493e8" data-name="&lt;Path&gt;" d="M1571.14872,448.85846a3.43532,3.43532,0,1,1-3.43076-3.61385A3.52593,3.52593,0,0,1,1571.14872,448.85846Z" fill="#fff"/><path id="847c6233-98ca-47e3-abeb-2a1e020aebf1" data-name="&lt;Path&gt;" d="M1581.86956,320.56683a3.43534,3.43534,0,1,1-3.43063-3.61384A3.52562,3.52562,0,0,1,1581.86956,320.56683Z" fill="#fff"/><path id="970c3f15-255b-4fa6-9935-73e82d984730" data-name="&lt;Path&gt;" d="M1569.37978,211.41722a3.43534,3.43534,0,1,1-3.43065-3.6137A3.5257,3.5257,0,0,1,1569.37978,211.41722Z" fill="#fff"/><path id="69e27430-6d22-47dc-a9d0-63f6539cdc83" data-name="&lt;Path&gt;" d="M1385.73015,204.97989a3.43546,3.43546,0,1,1-3.4309-3.61384A3.526,3.526,0,0,1,1385.73015,204.97989Z" fill="#fff"/><path id="88d03d5f-75c6-4e40-9e78-e6ba7320605f" data-name="&lt;Path&gt;" d="M1234.51118,251.90371a3.43533,3.43533,0,1,1-3.43076-3.61384A3.52569,3.52569,0,0,1,1234.51118,251.90371Z" fill="#fff"/><polyline id="4614d30c-d207-4bde-b66e-17e2b1962eb9" data-name="&lt;Path&gt;" points="1746.543 650.782 1674.887 642.883 1656.783 529.197" fill="none" stroke="#fff" stroke-miterlimit="10" stroke-width="0.74396"/><line id="57c50f60-f70e-45cb-bb96-6f4799626a2e" data-name="&lt;Path&gt;" x1="1577.40598" y1="320.89367" x2="1593.01936" y2="394.6507" fill="none" stroke="#fff" stroke-miterlimit="10" stroke-width="0.74396"/></g><g id="efffe354-0dd4-491e-8161-fad6449951f5" data-name="&lt;Group&gt;" opacity="0.17"><polyline id="5c43b942-bbfd-45f2-8b19-756b628b5bc0" data-name="&lt;Path&gt;" points="322.682 592.234 94.383 673.138 342.938 681.139 171.186 799.827 358.552 813.162" fill="none" stroke="#fff" stroke-miterlimit="10" stroke-width="0.74396"/><polyline id="95eee263-cda8-4755-8d99-66c446dfd7f6" data-name="&lt;Path&gt;" points="494.856 636.242 579.255 820.719 358.552 813.162 494.856 636.242 322.682 592.234 542.119 539.781 374.165 469.546 458.564 331.744 246.723 428.65 355.598 526.445 104.089 602.903 322.682 592.234 355.598 526.445" fill="none" stroke="#fff" stroke-miterlimit="10" stroke-width="0.74396"/><polygon id="5d4f16aa-c483-457f-9d19-03c1776a213a" data-name="&lt;Path&gt;" points="677.158 417.092 542.119 539.781 458.564 331.744 677.158 417.092" fill="none" stroke="#fff" stroke-miterlimit="10" stroke-width="0.74396"/><polyline id="b9358d8a-0c23-404c-964f-7a5ccc0956bd" data-name="&lt;Path&gt;" points="246.723 428.65 105.777 374.418 224.779 290.848 458.564 331.744 419.741 281.068 662.81 278.401" fill="none" stroke="#fff" stroke-miterlimit="10" stroke-width="0.74396"/><polygon id="97db1c7c-61cd-4443-ae98-1909e283a579" data-name="&lt;Path&gt;" points="390.201 207.277 452.656 185.051 534.523 239.283 419.741 281.068 390.201 207.277" fill="none" stroke="#fff" stroke-miterlimit="10" stroke-width="0.74396"/><line id="a515ae67-b360-48e3-abe3-ee3f229612d0" data-name="&lt;Path&gt;" x1="626.51848" y1="583.34381" x2="739.61303" y2="623.35103" fill="none" stroke="#fff" stroke-miterlimit="10" stroke-width="0.74396"/><line id="307d9440-acd1-45dc-acd9-9d08a9d6874c" data-name="&lt;Path&gt;" x1="542.11932" y1="539.78062" x2="494.85584" y2="636.24211" fill="none" stroke="#fff" stroke-miterlimit="10" stroke-width="0.74396"/><polyline id="3b590710-1561-4b00-bfb0-0b6b149d1f30" data-name="&lt;Path&gt;" points="358.552 813.162 342.938 681.139 494.856 636.242 626.518 583.344 542.119 539.781 355.598 526.445 374.165 469.546 246.723 428.65 58.513 540.67 355.598 526.445" fill="none" stroke="#fff" stroke-miterlimit="10" stroke-width="0.74396"/><line id="5fc6ebf2-7f55-4cd6-a21d-a2a2c48059f2" data-name="&lt;Path&gt;" x1="171.18601" y1="799.82679" x2="94.38268" y2="673.13768" fill="none" stroke="#fff" stroke-miterlimit="10" stroke-width="0.74396"/><polyline id="2ba554fe-29da-40c6-9c03-fe417eac6def" data-name="&lt;Path&gt;" points="662.81 278.401 677.158 417.092 749.741 382.419" fill="none" stroke="#fff" stroke-miterlimit="10" stroke-width="0.74396"/><polyline id="26e2d165-9410-4117-8fb0-7c3d0bc8fa74" data-name="&lt;Path&gt;" points="630.178 180.522 514.781 109.34 365.077 126.862 85.422 54.584" fill="none" stroke="#fff" stroke-miterlimit="10" stroke-width="0.74396"/><polyline id="b0ab2062-8851-4075-b4ef-6d3c013bcc9c" data-name="&lt;Path&gt;" points="815.228 441.159 731.02 510.151 542.119 539.781" fill="none" stroke="#fff" stroke-miterlimit="10" stroke-width="0.74396"/><polyline id="e2148c0a-64f5-4176-8a65-e0e0d3536296" data-name="&lt;Path&gt;" points="221.611 191.473 390.201 207.277 137.004 281.957" fill="none" stroke="#fff" stroke-miterlimit="10" stroke-width="0.74396"/><polyline id="d0e26e7c-6db4-48f9-80ad-0cf48d40b742" data-name="&lt;Path&gt;" points="875.526 662.371 763.248 764.216 579.255 820.719" fill="none" stroke="#fff" stroke-miterlimit="10" stroke-width="0.74396"/><ellipse id="368730b6-ae06-44ce-a79c-aaa4e3d32c31" data-name="&lt;Path&gt;" cx="875.52587" cy="662.64467" rx="4.15851" ry="4.38043" fill="#fff"/><ellipse id="f59e47ef-79f4-44cc-a8b2-b2c1a1dac6eb" data-name="&lt;Path&gt;" cx="739.59681" cy="623.49451" rx="4.15851" ry="4.3806" fill="#fff"/><path id="3dd04304-cd6d-4ec3-b363-a097a35b47f9" data-name="&lt;Path&gt;" d="M811.07,441.70613a4.16406,4.16406,0,1,1,4.15834,4.38043A4.27371,4.27371,0,0,1,811.07,441.70613Z" fill="#fff"/><path id="61055c0e-1ee3-42e4-8d82-bc5d5420f29c" data-name="&lt;Path&gt;" d="M744.53493,382.02255a4.164,4.164,0,1,1,4.15835,4.38026A4.2736,4.2736,0,0,1,744.53493,382.02255Z" fill="#fff"/><path id="6135f945-66e9-4f89-b384-e55683898c04" data-name="&lt;Path&gt;" d="M672.80161,415.9708a4.16414,4.16414,0,1,1,4.15852,4.38044A4.27369,4.27369,0,0,1,672.80161,415.9708Z" fill="#fff"/><path id="8d001776-a0f5-4970-a4ee-03c58e753d2d" data-name="&lt;Path&gt;" d="M453.96377,332.195a4.16412,4.16412,0,1,1,4.15851,4.38027A4.27373,4.27373,0,0,1,453.96377,332.195Z" fill="#fff"/><path id="a25f6bd5-89b2-471a-ac3a-0ac5954d09bf" data-name="&lt;Path&gt;" d="M370.14512,470.17876a4.16406,4.16406,0,1,1,4.15835,4.3806A4.27381,4.27381,0,0,1,370.14512,470.17876Z" fill="#fff"/><path id="7741d197-ed99-449c-8395-ec978d3374d0" data-name="&lt;Path&gt;" d="M242.53276,428.97541a4.16413,4.16413,0,1,1,4.15851,4.38026A4.27374,4.27374,0,0,1,242.53276,428.97541Z" fill="#fff"/><path id="a852f6da-1b9f-48b7-9e70-1de08c1fb004" data-name="&lt;Path&gt;" d="M55.79252,540.266a4.16414,4.16414,0,1,1,4.15852,4.38043A4.274,4.274,0,0,1,55.79252,540.266Z" fill="#fff"/><path id="a5288edb-e371-468c-8417-67dc580f8602" data-name="&lt;Path&gt;" d="M97.50707,603.50869a4.16421,4.16421,0,1,1,4.15851,4.38043A4.27358,4.27358,0,0,1,97.50707,603.50869Z" fill="#fff"/><path id="c2b1e461-ccf0-4f7c-94d1-fe80cf9f0240" data-name="&lt;Path&gt;" d="M416.53781,281.54619a4.164,4.164,0,1,1,4.15818,4.38026A4.27361,4.27361,0,0,1,416.53781,281.54619Z" fill="#fff"/><path id="4f7eb78d-9b56-4cd9-a7bd-744696c4f3e0" data-name="&lt;Path&gt;" d="M658.507,278.80821a4.16414,4.16414,0,1,1,4.15852,4.3806A4.27384,4.27384,0,0,1,658.507,278.80821Z" fill="#fff"/><path id="25a0ccd4-6e50-4a1c-9d15-4ce161b52e89" data-name="&lt;Path&gt;" d="M529.07549,238.97359A4.16414,4.16414,0,1,1,533.234,243.354,4.27369,4.27369,0,0,1,529.07549,238.97359Z" fill="#fff"/><path id="110ed1ca-076d-4524-ac81-479d8e22146b" data-name="&lt;Path&gt;" d="M385.21946,207.763a4.16406,4.16406,0,1,1,4.15835,4.38043A4.27366,4.27366,0,0,1,385.21946,207.763Z" fill="#fff"/><ellipse id="e7fbe2f7-53d8-4396-8ce9-17ef560bbe1d" data-name="&lt;Path&gt;" cx="137.92204" cy="281.2723" rx="4.15851" ry="4.38043" fill="#fff"/><path id="5579c2c4-297d-403c-9466-e958f70d4ee9" data-name="&lt;Path&gt;" d="M219.92133,291.53893a4.16406,4.16406,0,1,1,4.15851,4.38043A4.27384,4.27384,0,0,1,219.92133,291.53893Z" fill="#fff"/><path id="22cb6f50-679c-42a5-bb51-e18f7a906c14" data-name="&lt;Path&gt;" d="M101.79565,373.26169a4.16406,4.16406,0,1,1,4.15852,4.38043A4.274,4.274,0,0,1,101.79565,373.26169Z" fill="#fff"/><path id="b72a38d1-8157-4465-86d6-bedfec497e7a" data-name="&lt;Path&gt;" d="M217.58218,191.33645a4.16406,4.16406,0,1,1,4.15851,4.38043A4.27384,4.27384,0,0,1,217.58218,191.33645Z" fill="#fff"/><path id="38747a80-89d3-4ea7-bbc5-a1a80998bba3" data-name="&lt;Path&gt;" d="M625.62932,180.3852a4.16407,4.16407,0,1,1,4.15835,4.3806A4.27392,4.27392,0,0,1,625.62932,180.3852Z" fill="#fff"/><path id="b7ee917f-9e42-43dc-b1d0-c7810d3338e3" data-name="&lt;Path&gt;" d="M510.10262,109.33981a4.16413,4.16413,0,1,1,4.15851,4.38043A4.27358,4.27358,0,0,1,510.10262,109.33981Z" fill="#fff"/><path id="16e3a73f-e655-4026-a45a-dfb85bd70e80" data-name="&lt;Path&gt;" d="M359.879,125.21908a4.164,4.164,0,1,1,4.15835,4.38027A4.27386,4.27386,0,0,1,359.879,125.21908Z" fill="#fff"/><ellipse id="4ca2a28d-f4a5-4176-b5ef-67808da6f676" data-name="&lt;Path&gt;" cx="84.90179" cy="53.48923" rx="4.15851" ry="4.38043" fill="#fff"/><path id="b93160dd-5e04-4a5c-a0b6-659c451d9161" data-name="&lt;Path&gt;" d="M490.22006,636.63563a4.16414,4.16414,0,1,1,4.15851,4.3806A4.27394,4.27394,0,0,1,490.22006,636.63563Z" fill="#fff"/><path id="2eb3959a-af35-4348-892d-e2950e8150be" data-name="&lt;Path&gt;" d="M621.211,582.97544a4.16414,4.16414,0,1,1,4.15852,4.38059A4.27373,4.27373,0,0,1,621.211,582.97544Z" fill="#fff"/><path id="da2b9785-d74c-42f4-a3f0-ffde3470af07" data-name="&lt;Path&gt;" d="M537.78224,539.71856a4.16414,4.16414,0,1,1,4.15851,4.38043A4.27388,4.27388,0,0,1,537.78224,539.71856Z" fill="#fff"/><path id="c536a2e9-aa7d-49a7-827b-74d3c8499678" data-name="&lt;Path&gt;" d="M726.86146,510.698a4.16406,4.16406,0,1,1,4.15835,4.38043A4.27371,4.27371,0,0,1,726.86146,510.698Z" fill="#fff"/><path id="e138698f-0957-49f7-8b36-38dddfece82e" data-name="&lt;Path&gt;" d="M88.67041,672.227a4.16414,4.16414,0,1,1,4.15852,4.38043A4.274,4.274,0,0,1,88.67041,672.227Z" fill="#fff"/><path id="cfb23490-a92f-4922-a694-86909859f10d" data-name="&lt;Path&gt;" d="M167.16105,798.16464a4.16414,4.16414,0,1,1,4.15851,4.3806A4.27394,4.27394,0,0,1,167.16105,798.16464Z" fill="#fff"/><path id="b99e0441-2bb7-4483-9f80-23e83e8f18b4" data-name="&lt;Path&gt;" d="M319.8539,591.7363a4.16414,4.16414,0,1,1,4.15852,4.38043A4.2737,4.2737,0,0,1,319.8539,591.7363Z" fill="#fff"/><ellipse id="8c2df2b7-ee00-43c9-8758-a42048bb52b7" data-name="&lt;Path&gt;" cx="354.68089" cy="526.02967" rx="4.15851" ry="4.38043" fill="#fff"/><path id="0058bcf8-d70e-4c83-b1e7-e6c57449de29" data-name="&lt;Path&gt;" d="M337.52738,681.5353a4.16406,4.16406,0,1,1,4.15851,4.3806A4.27394,4.27394,0,0,1,337.52738,681.5353Z" fill="#fff"/><path id="66f053b6-b583-45ce-ae41-7c0ec88c6c2a" data-name="&lt;Path&gt;" d="M352.66676,813.83854a4.164,4.164,0,1,1,4.15818,4.38027A4.27371,4.27371,0,0,1,352.66676,813.83854Z" fill="#fff"/><ellipse id="b14113e2-8e92-4ac8-ab7c-aace4009dd81" data-name="&lt;Path&gt;" cx="579.43175" cy="821.64124" rx="4.15852" ry="4.38043" fill="#fff"/><path id="4393424a-9f61-459f-a240-2e6f7e390f23" data-name="&lt;Path&gt;" d="M758.56952,764.76365a4.16414,4.16414,0,1,1,4.15852,4.38043A4.27369,4.27369,0,0,1,758.56952,764.76365Z" fill="#fff"/><polyline id="098984e2-1bc4-4468-8ad4-38c77b20a1d5" data-name="&lt;Path&gt;" points="137.922 281.272 224.779 290.848 246.723 428.65" fill="none" stroke="#fff" stroke-miterlimit="10" stroke-width="0.74396"/><line id="28153d5f-c548-481f-8c35-f09928866689" data-name="&lt;Path&gt;" x1="342.9378" y1="681.13912" x2="324.01242" y2="591.7363" fill="none" stroke="#fff" stroke-miterlimit="10" stroke-width="0.74396"/></g><g id="32c72652-6551-4d8e-b606-e8b6e88c8404" data-name="&lt;Group&gt;"><circle id="6e3c5802-255d-4a45-a1a1-7759ffb51f45" data-name="&lt;Path&gt;" cx="788.56267" cy="279.79254" r="5.37311" fill="url(#9c8315bc-9467-4fb8-ae07-858954d86f4e)" style="mix-blend-mode:screen"/><path id="a0cfc074-4296-49f0-8061-72c87352d2ad" data-name="&lt;Path&gt;" d="M791.89746,279.79254a3.33479,3.33479,0,1,1-3.33479-3.33478A3.33484,3.33484,0,0,1,791.89746,279.79254Z" fill="url(#c1272dfa-da57-4aeb-9dee-606218938a57)"/></g><g id="d87ce88e-2c82-48ff-8fb5-cb00875c0ba8" data-name="&lt;Group&gt;"><circle id="90af9b44-75cb-4602-a0ab-395269a3258c" data-name="&lt;Path&gt;" cx="728.34669" cy="188.69672" r="5.37311" fill="url(#8d3b4687-0ed0-4c6d-b24a-b06f21f92593)" style="mix-blend-mode:screen"/><path id="b9642c2a-2e81-4a4d-92ba-a0894c74b80d" data-name="&lt;Path&gt;" d="M731.68147,188.69672a3.33471,3.33471,0,1,1-3.33478-3.33478A3.33477,3.33477,0,0,1,731.68147,188.69672Z" fill="url(#5d4f6a65-45e9-4e4e-9b04-94958cd64a9d)"/></g><g id="0f2137c3-b7a9-46ad-98ab-52ea0656e0af" data-name="&lt;Group&gt;"><circle id="ae65e283-07b9-4b9c-bdb4-b16d415d21a6" data-name="&lt;Path&gt;" cx="753.42131" cy="561.72675" r="10.65353" fill="url(#a0354e3f-cdde-4ecc-8d28-29d2f46044bc)" style="mix-blend-mode:screen"/><path id="3855dbf6-5e22-4012-bfdc-a368423b5a34" data-name="&lt;Path&gt;" d="M760.03326,561.72675a6.612,6.612,0,1,1-6.612-6.61209A6.612,6.612,0,0,1,760.03326,561.72675Z" fill="url(#e746e01a-6875-4121-ad4b-a6aa0b054be2)"/></g><g id="381bcd5c-a319-4d7b-b3be-a8624e937be5" data-name="&lt;Group&gt;"><circle id="4a5c3ca2-638f-43b8-909d-87e21d2337bf" data-name="&lt;Path&gt;" cx="1191.45361" cy="287.45083" r="10.65358" fill="url(#31f9266d-5eb3-47ac-943f-6493266fb04d)" style="mix-blend-mode:screen"/><path id="6d48fec4-a99c-46ca-88ce-4bd45335526e" data-name="&lt;Path&gt;" d="M1198.06573,287.45083a6.61209,6.61209,0,1,1-6.61209-6.61209A6.61192,6.61192,0,0,1,1198.06573,287.45083Z" fill="url(#523dcfbb-8764-43d2-9944-581b59816929)"/></g><g id="3ec24cbb-591f-4841-918a-3d69d1dbfa69" data-name="&lt;Group&gt;"><circle id="3d2f2edf-f256-480c-8e47-671fdf21c04f" data-name="&lt;Path&gt;" cx="1301.88034" cy="395.83954" r="10.65354" transform="translate(101.4111 1036.50713) rotate(-45)" fill="url(#0d873748-8e98-42f0-9e39-2c002374af1d)" style="mix-blend-mode:screen"/><path id="7767c017-b9d4-44a5-b93b-e71ae2b481ab" data-name="&lt;Path&gt;" d="M1308.49253,395.83957a6.61209,6.61209,0,1,1-6.61223-6.61222A6.612,6.612,0,0,1,1308.49253,395.83957Z" fill="url(#2f202075-0854-423a-968a-fbbb1b745158)"/></g><g id="89e24d1f-4216-4baf-8ad1-5bd071dc89a4" data-name="&lt;Group&gt;"><path id="963929a4-b36b-45ce-95d4-d303d63bbad8" data-name="&lt;Path&gt;" d="M1364.31961,562.4061a10.6536,10.6536,0,1,1-10.6535-10.65366A10.65351,10.65351,0,0,1,1364.31961,562.4061Z" fill="url(#6f91fc2c-1b6e-44bf-b3ad-310b5351316d)" style="mix-blend-mode:screen"/><path id="4b505417-df77-4264-97b1-e57ceef58478" data-name="&lt;Path&gt;" d="M1360.27817,562.4061a6.612,6.612,0,1,1-6.61206-6.61222A6.61191,6.61191,0,0,1,1360.27817,562.4061Z" fill="url(#f71f26c9-716c-4825-8832-c3b9e9e4d2c2)"/></g><circle id="0e4873e7-af07-4011-b8b4-3461f9258b96" data-name="&lt;Path&gt;" cx="814.054" cy="375.98806" r="10.65365" transform="translate(-27.43281 685.74746) rotate(-45)" fill="url(#920a346a-3348-464a-8eca-501e0f4b858b)" style="mix-blend-mode:screen"/><g id="633be3a0-7f73-4a67-95ea-b4d783ed7d5e" data-name="&lt;Group&gt;"><path id="69d55cd1-94e8-4c90-9c3c-717803077c22" data-name="&lt;Path&gt;" d="M677.17868,454.82027a6.08339,6.08339,0,1,1-6.08345-6.08332A6.08338,6.08338,0,0,1,677.17868,454.82027Z" fill="url(#f9ea99d0-0e02-46f2-b45f-8419b50190d8)" style="mix-blend-mode:screen"/><path id="5a1fd770-60b5-46d6-b09d-d833f4f96dad" data-name="&lt;Path&gt;" d="M674.87085,454.82027a3.77556,3.77556,0,1,1-3.77562-3.77549A3.77552,3.77552,0,0,1,674.87085,454.82027Z" fill="url(#bc5c68ee-2fe7-4950-b08e-a5f1a3e1c77d)"/></g><g id="364448e5-bc72-4ea9-90a0-ec6c340ced38" data-name="&lt;Group&gt;"><circle id="7b404126-b756-435d-8938-a31a5befc32a" data-name="&lt;Path&gt;" cx="971.58821" cy="348.22261" r="4.9408" fill="url(#5223a43c-8963-4690-ae3a-ea58b623d117)" style="mix-blend-mode:screen"/><path id="5cfc8256-7d55-48e5-a0ff-40e38c634345" data-name="&lt;Path&gt;" d="M974.65472,348.22261a3.06644,3.06644,0,1,1-3.06651-3.06651A3.06657,3.06657,0,0,1,974.65472,348.22261Z" fill="url(#0490b580-9c5d-47b4-bea5-989f072d100a)"/></g><g id="bdd2e05a-9d03-4621-b2c0-33a16d6e4bb3" data-name="&lt;Group&gt;"><circle id="c2c08f17-69b2-4ac3-81da-296e941a2352" data-name="&lt;Path&gt;" cx="905.65944" cy="174.8007" r="4.94074" fill="url(#4730a7c7-784f-4d19-aed4-b8ddeed61ecb)" style="mix-blend-mode:screen"/><path id="54e152f4-eeca-49e0-9b1d-ffd13fd4d3eb" data-name="&lt;Path&gt;" d="M908.726,174.8007a3.06644,3.06644,0,1,1-3.06651-3.06651A3.06649,3.06649,0,0,1,908.726,174.8007Z" fill="url(#8f961d06-087c-4930-87fa-8d192ce76878)"/></g><g id="00c4ba4c-b720-429e-9ebe-04b36c22981c" data-name="&lt;Group&gt;"><path id="5f4071a5-f2c1-4fe4-8b3e-68eacec14666" data-name="&lt;Path&gt;" d="M1183.33212,518.68a3.45854,3.45854,0,1,1-3.45847-3.45847A3.45838,3.45838,0,0,1,1183.33212,518.68Z" fill="url(#e24cfb1e-ae7e-42a3-8217-01b00dab7b1c)" style="mix-blend-mode:screen"/><path id="ed5c5ba0-b25d-4d29-94c6-3491641ed385" data-name="&lt;Path&gt;" d="M1182.02011,518.68a2.14653,2.14653,0,1,1-2.14646-2.14659A2.14649,2.14649,0,0,1,1182.02011,518.68Z" fill="url(#2dc2f996-6024-45a0-91c0-d47b4b4c0d19)"/></g><g id="29d95059-8273-4dc9-88ee-f2402a5699d9" data-name="&lt;Group&gt;"><path id="9fe870e2-dae1-4760-8936-2bb195d883bf" data-name="&lt;Path&gt;" d="M1339.95533,688.64343a3.45854,3.45854,0,1,1-3.45847-3.45861A3.45855,3.45855,0,0,1,1339.95533,688.64343Z" fill="url(#551e2fd6-988a-4611-a57a-cf2fa2c276c1)" style="mix-blend-mode:screen"/><path id="5af8d6ea-cfb7-4d7e-b16e-eeee2013c89f" data-name="&lt;Path&gt;" d="M1338.64332,688.64343a2.14653,2.14653,0,1,1-2.14646-2.1466A2.14647,2.14647,0,0,1,1338.64332,688.64343Z" fill="url(#ce7eda6f-377f-4070-b4e2-b41fec65abed)"/></g><g id="f5aca002-226d-4ced-8e32-a10546d32428" data-name="&lt;Group&gt;"><path id="6a407cda-996b-4808-9c9a-5e86877d3391" data-name="&lt;Path&gt;" d="M1320.02187,145.15587a3.45848,3.45848,0,1,1-3.45848-3.45847A3.45841,3.45841,0,0,1,1320.02187,145.15587Z" fill="url(#9dee8679-656b-4327-a368-805e9f9928b7)" style="mix-blend-mode:screen"/><path id="dac73ec0-fa78-4c8d-a8a9-fd8e6400ca03" data-name="&lt;Path&gt;" d="M1318.71,145.15587a2.14654,2.14654,0,1,1-2.14662-2.14632A2.14662,2.14662,0,0,1,1318.71,145.15587Z" fill="url(#5dd6a694-120b-4e0b-be9b-99542028368c)"/></g><g id="e820c511-6be2-4260-8326-2ed6bb12ee72" data-name="&lt;Group&gt;"><path id="4a081b4d-e628-4c41-80b9-9fd2365044c6" data-name="&lt;Path&gt;" d="M1373.05863,390.46646a3.45854,3.45854,0,1,1-3.45847-3.45861A3.45838,3.45838,0,0,1,1373.05863,390.46646Z" fill="url(#e1512112-1e52-4bb2-b840-86df68db0d4c)" style="mix-blend-mode:screen"/><path id="8690b140-b144-423a-9e4e-a5d040fa67e3" data-name="&lt;Path&gt;" d="M1371.74662,390.46646a2.14653,2.14653,0,1,1-2.14646-2.14646A2.14647,2.14647,0,0,1,1371.74662,390.46646Z" fill="url(#e4afd40b-dbf3-4db8-b091-14f7f9791f78)"/></g><g id="32a22cdf-62ae-41dc-b857-2993ae961553" data-name="&lt;Group&gt;"><circle id="4af843e9-733d-4dcf-a936-f43a2748dca7" data-name="&lt;Path&gt;" cx="1297.81347" cy="360.82163" r="4.94074" fill="url(#197682f3-f67e-484d-8a82-694911bbb236)" style="mix-blend-mode:screen"/><path id="ff736e20-2a1b-42a5-8d18-91a10573d811" data-name="&lt;Path&gt;" d="M1300.88,360.82163a3.06644,3.06644,0,1,1-3.06651-3.06651A3.06649,3.06649,0,0,1,1300.88,360.82163Z" fill="url(#2733b28c-bc23-425c-a48d-31b86ec3755b)"/></g><g id="f4e31c44-cf60-4bdb-b96d-8f5277ff4d57" data-name="&lt;Group&gt;"><circle id="89b0f6e6-db17-4ee7-be2d-83ffd8125f35" data-name="&lt;Path&gt;" cx="698.98925" cy="408.99439" r="4.94074" fill="url(#77a60578-7f29-4ae1-98a8-6984fe08979a)" style="mix-blend-mode:screen"/><path id="4f685221-500a-4cbd-8733-264e46cb070a" data-name="&lt;Path&gt;" d="M702.05562,408.99439a3.06644,3.06644,0,1,1-3.06637-3.06651A3.06637,3.06637,0,0,1,702.05562,408.99439Z" fill="url(#a71b5523-be30-4625-b541-45b74f369bd5)"/></g><g id="d4eab1bb-2aaf-4273-9803-2c6787bdbc19" data-name="&lt;Group&gt;"><path id="afddef67-c28d-4b94-9d6d-efac4ebd4aa1" data-name="&lt;Path&gt;" d="M1152.49244,346.92561a2.34688,2.34688,0,1,1-2.34688-2.34674A2.347,2.347,0,0,1,1152.49244,346.92561Z" fill="url(#b4329c01-c8a0-4d2d-9f42-5f66ef7c712d)" style="mix-blend-mode:screen"/><path id="2f474055-9595-4b24-9b48-52490e36b3a5" data-name="&lt;Path&gt;" d="M1151.60214,346.92561a1.4566,1.4566,0,1,1-1.45658-1.45659A1.45666,1.45666,0,0,1,1151.60214,346.92561Z" fill="url(#590aa9bc-c232-4d9f-a5f7-fc06bbc5155f)"/></g><g id="5e8ed827-44ee-411c-8bdc-0742b18ca893" data-name="&lt;Group&gt;"><path id="c37eac64-3570-449e-a316-9cd3e4f2086b" data-name="&lt;Path&gt;" d="M844.27,445.582a2.34681,2.34681,0,1,1-2.34674-2.34688A2.34669,2.34669,0,0,1,844.27,445.582Z" fill="url(#15f023ba-0f9a-47c4-ac5f-cf4f02b5b691)" style="mix-blend-mode:screen"/><circle id="5f2e6929-b174-4351-851e-6edb030b0082" data-name="&lt;Path&gt;" cx="841.92328" cy="445.58197" r="1.4566" fill="url(#b621f5a9-aa52-4f49-9308-29f9a4aa97c6)"/></g><g id="cad42209-0afc-44f1-aec4-1fb0b2f41550" data-name="&lt;Group&gt;"><path id="6ef8d960-48f4-47ca-a456-a812c038a1a4" data-name="&lt;Path&gt;" d="M760.52366,434.2181a2.34688,2.34688,0,1,1-2.34688-2.34688A2.347,2.347,0,0,1,760.52366,434.2181Z" fill="url(#ec70d8f5-8dc2-4c17-afd2-78d5e2c7b364)" style="mix-blend-mode:screen"/><circle id="9e3ff830-1003-498f-ae32-f26d12d27fd2" data-name="&lt;Path&gt;" cx="758.17678" cy="434.2181" r="1.45659" fill="url(#43d4aa56-86ff-4693-86cf-fdf858cfcb13)"/></g><g id="a4b8e753-0253-405c-b0af-9058d09d188e" data-name="&lt;Group&gt;"><path id="7b327ac8-e7cf-4451-bef1-5511eb6bc7f3" data-name="&lt;Path&gt;" d="M1238.54552,486.83751a2.34688,2.34688,0,1,1-2.34688-2.34675A2.347,2.347,0,0,1,1238.54552,486.83751Z" fill="url(#b1317187-46e8-4516-bf9a-63a0f5b00bb5)" style="mix-blend-mode:screen"/><circle id="dca27edd-fc4a-4129-a3d5-751184d4455b" data-name="&lt;Path&gt;" cx="1236.19864" cy="486.83751" r="1.45659" fill="url(#29245953-e1a9-45bf-929c-eb1f0e3fcfc4)"/></g><g id="74f78b5d-98c3-4cb9-b395-5159dfffce50" data-name="&lt;Group&gt;"><path id="64ef5874-5f9f-4930-b4ad-af972db62e04" data-name="&lt;Path&gt;" d="M920.384,563.14717a2.34688,2.34688,0,1,1-2.34674-2.34688A2.3469,2.3469,0,0,1,920.384,563.14717Z" fill="url(#3f26e8f3-df20-45a6-82b4-31ac3038fb90)" style="mix-blend-mode:screen"/><path id="2d73dc7f-f50e-49f7-aa32-c4a1de38af51" data-name="&lt;Path&gt;" d="M919.49361,563.14717a1.45646,1.45646,0,1,1-1.45632-1.4566A1.45641,1.45641,0,0,1,919.49361,563.14717Z" fill="url(#435e63f5-0a90-4f24-9598-cb57d694a367)"/></g><g id="e42bf462-2686-4ea4-b94e-1a574437ab62" data-name="&lt;Group&gt;"><path id="d621d61f-39d8-4706-9bd5-212d55eb071b" data-name="&lt;Path&gt;" d="M1122.95668,293.37974a2.34688,2.34688,0,1,1-2.347-2.34675A2.347,2.347,0,0,1,1122.95668,293.37974Z" fill="url(#64c9f5a0-fd3e-4b70-80b8-84f4a5307c10)" style="mix-blend-mode:screen"/><path id="d1334bda-3a67-47ad-a088-d462668509aa" data-name="&lt;Path&gt;" d="M1122.06627,293.37974a1.45654,1.45654,0,1,1-1.45661-1.4566A1.45666,1.45666,0,0,1,1122.06627,293.37974Z" fill="url(#4c30a434-8a82-4d8b-b75c-907a8ad39623)"/></g><g id="1b20f13f-4dd9-40fd-8e3c-93f8564be8e3" data-name="&lt;Group&gt;"><path id="e0dd5486-447e-434a-bd94-14f9df6f773a" data-name="&lt;Path&gt;" d="M1039.92558,483.84745a2.34688,2.34688,0,1,1-2.34688-2.34688A2.3469,2.3469,0,0,1,1039.92558,483.84745Z" fill="url(#b1cac95a-f1ba-4336-9c54-3c840601abd2)" style="mix-blend-mode:screen"/><circle id="96e42989-19e2-4d6f-87b4-0932a3ce2488" data-name="&lt;Path&gt;" cx="1037.5787" cy="483.84745" r="1.4566" fill="url(#e4c0a5ed-ce3b-43cf-b682-da354fb47905)"/></g><g id="9ac54cc6-1261-44d7-b8eb-f72205cefbcc" data-name="&lt;Group&gt;"><path id="361721d7-0b69-4bee-930c-bd1fc08a09de" data-name="&lt;Path&gt;" d="M815.36639,575.72052a2.34681,2.34681,0,1,1-2.34674-2.34688A2.3469,2.3469,0,0,1,815.36639,575.72052Z" fill="url(#e16dc871-5ea7-4ee7-8094-03e78f556be9)" style="mix-blend-mode:screen"/><circle id="660b11f6-5bdb-49e2-8320-7752acdb827d" data-name="&lt;Path&gt;" cx="813.01965" cy="575.72052" r="1.45659" fill="url(#20ca9c47-7b51-4878-bdd3-c04284c2f249)"/></g><g id="a43dfd0a-850e-4676-86f6-21547f36ced9" data-name="&lt;Group&gt;"><path id="28e6439a-5a85-418b-bf27-f9b979982683" data-name="&lt;Path&gt;" d="M751.87734,679.28157a2.347,2.347,0,1,1-2.34688-2.347A2.347,2.347,0,0,1,751.87734,679.28157Z" fill="url(#81427beb-3ebe-4780-8414-aff03ed08669)" style="mix-blend-mode:screen"/><path id="2a48855d-4e9b-463e-9361-1a9218b3f536" data-name="&lt;Path&gt;" d="M750.98691,679.28157a1.45653,1.45653,0,1,1-1.45645-1.45659A1.45641,1.45641,0,0,1,750.98691,679.28157Z" fill="url(#a8edea9d-a570-4969-a99b-d9397f9cc8bb)"/></g><g id="2ab5d3fd-41f0-4f67-94d1-17f103faa8c2" data-name="&lt;Group&gt;"><path id="be1017c5-fdb1-4246-84a9-b9b2c20bfe6d" data-name="&lt;Path&gt;" d="M708.918,158.99a2.34682,2.34682,0,1,1-2.34675-2.34674A2.34685,2.34685,0,0,1,708.918,158.99Z" fill="url(#65a260fa-1191-4049-b4d7-903fffc9bbd6)" style="mix-blend-mode:screen"/><circle id="8bf11cee-acf4-4cf7-92bf-4d888c1e2886" data-name="&lt;Path&gt;" cx="706.57121" cy="158.99004" r="1.45659" fill="url(#91fa1b39-9c5f-46e8-bc86-ff0914dd09d7)"/></g><g id="24cce2b8-3157-4907-a961-a9d12e1d1f66" data-name="&lt;Group&gt;"><path id="b0880552-e66b-46ee-8317-63c25c852229" data-name="&lt;Path&gt;" d="M820.58,248.91257a2.34688,2.34688,0,1,1-2.347-2.34675A2.34687,2.34687,0,0,1,820.58,248.91257Z" fill="url(#ba336c91-2ebb-49c4-878f-8a7570e542b2)" style="mix-blend-mode:screen"/><path id="fe4b08a0-c72b-42ef-9f24-3106b80a30f2" data-name="&lt;Path&gt;" d="M819.68962,248.91257a1.45653,1.45653,0,1,1-1.45659-1.4566A1.45664,1.45664,0,0,1,819.68962,248.91257Z" fill="url(#7fb5dc1f-39d4-41e3-9531-7b164fac4bfb)"/></g><g id="9015043e-8093-4e1a-9a5d-7aebcab780e1" data-name="&lt;Group&gt;"><path id="bb49d46a-5b72-4321-a270-075bbd866f21" data-name="&lt;Path&gt;" d="M1345.76082,175.32045a2.34688,2.34688,0,1,1-2.347-2.34688A2.34686,2.34686,0,0,1,1345.76082,175.32045Z" fill="url(#d5b0dd98-35ff-4107-9b60-ea4bb38206c9)" style="mix-blend-mode:screen"/><path id="64e270ff-48da-4c8d-96ba-a48579d34c4a" data-name="&lt;Path&gt;" d="M1344.8704,175.32045a1.45653,1.45653,0,1,1-1.45659-1.45659A1.45644,1.45644,0,0,1,1344.8704,175.32045Z" fill="url(#a478c7bd-993f-4864-9392-88f88ceeec5b)"/></g><g id="d639f87c-e7d9-42bb-81f6-3122ae234722" data-name="&lt;Group&gt;"><path id="f6f3a9d4-fb26-4586-8071-958b20f88f7c" data-name="&lt;Path&gt;" d="M1309.19891,632.838a2.34688,2.34688,0,1,1-2.34688-2.34688A2.34681,2.34681,0,0,1,1309.19891,632.838Z" fill="url(#983a383b-15ce-4bfb-bb46-21e650e9b6b2)" style="mix-blend-mode:screen"/><path id="4b0a78ea-f5ef-45a9-98fd-9415a153e9b2" data-name="&lt;Path&gt;" d="M1308.30849,632.838a1.45653,1.45653,0,1,1-1.45646-1.4566A1.45653,1.45653,0,0,1,1308.30849,632.838Z" fill="url(#09a90c97-7c3c-4552-9164-737510c7e5a5)"/></g><rect id="d7071ec7-ef49-4219-a79a-7cab96dcff48" data-name="&lt;Rectangle&gt;" x="550.63705" y="101.1649" width="1023.94437" height="682.62958" fill="none"/></g></g></g></g></svg>